<svg xmlns="http://www.w3.org/2000/svg" data-name="Layer 1" viewBox="0 0 100 100" x="0px" y="0px"><title>icons_animals_6</title><path d="M70.32,29.6c-1.46-.41-3-.83-4.5-1.29-14.19-4.25-36.12-3.21-41.63-2.36a14.26,14.26,0,0,0-4.43-4.26,3.62,3.62,0,0,0-2.94-.44c-1.08.38-2.7,1.68-2,6.26-2.58.92-5.13,3.57-5.3,6.46-.81,1.18-3,2.12-4.86,2.87a10.75,10.75,0,0,0-3.21,1.71l-.4.4.13.55A5.47,5.47,0,0,0,3.93,43.2a7.45,7.45,0,0,0,4,.72,8.89,8.89,0,0,0-.68,1.64l-.61,2,1.95-.8c2.08-.85,6.36.4,8.46,2,.53.59,3.47,3.67,6.57,3.67a4.45,4.45,0,0,0,.87-.08,9.19,9.19,0,0,1,3.78-.09c.11.31.21.6.34.92,1,1.85-1.68,4.11-1.67,4.11-.25.17-6,4.35-5.92,9.67,0,2.86,1.76,5.43,5.08,7.64l.33.22.39-.07c1.79-.32,1.67-2,1.6-2.95-.09-1.28,0-1.7.69-2,.43-.17,1.29-.4,2.28-.66a55.07,55.07,0,0,0,7.17-2.28,5.09,5.09,0,0,1-2.91,2.64c-4.31,1.57-5.2,3.51-5.05,4.41l.14.84H42.37l.15,0c.37-.12,8.87-3,10.69-17a20.74,20.74,0,0,0,5.3,2.27,51.18,51.18,0,0,0-.69,12c-3.71,1.47-5,5.51-5,5.7l-.39,1.29H68.94l0-1c0-.1.36-10.13,8.1-13.44a29.84,29.84,0,0,0,2.76-1.36,30,30,0,0,0,6.77,8.56A6.7,6.7,0,0,0,83,77.23L82.9,78.3H98.58l.18-.77c.06-.27.53-3.21-3-23C92.43,35.82,82.67,33.08,70.32,29.6ZM42,72.82H33.59a11.4,11.4,0,0,1,2.75-1.37A7.31,7.31,0,0,0,41,65.79c3.4-1.79,6.47-4.38,7.6-8.23.26-.88.46-1.69.63-2.46.56.43,1.26,1,2.08,1.51C50,69.24,43.12,72.4,42,72.82ZM85.21,76.3a4.39,4.39,0,0,1,4-3.11l4.68-.46L89.4,71.25c-2.39-.8-6.77-6.58-7.88-9,5.12-3.35,6.77-7,6.86-7.19l-1.83-.8c0,.05-2.31,5.13-10.27,8.53C68.82,66,67.33,74.21,67,77.06H55.28a6.5,6.5,0,0,1,3.84-3.31l.78-.21,0-.81C59,58.83,62.67,53.1,64.26,51.29l.19-.23L62.76,50a19.4,19.4,0,0,0-3.82,8.14c-3.92-1-8-4.18-9.26-5.23.82-5.49-.52-7.75-.71-8l-1.67,1.09S49,49,46.7,57c-1.94,6.64-11,9-15.81,10.27a24.6,24.6,0,0,0-2.52.74c-2.15.87-2,2.82-1.93,4,0,.14,0,.31,0,.46C24.22,70.78,23.06,68.94,23,67c-.08-4.26,5-8,5.14-8.06s4-3.34,2.26-6.55c-3.42-8.3.59-11.88.77-12l-.65-.76-.64-.77c-.2.16-4.25,3.68-2.29,11.37a12.46,12.46,0,0,0-3.51.24c-1.66.34-3.7-1.16-4.89-2.28,5.12-4.24,5.42-8,5.43-8.15l-2-.13s-.32,3.23-4.95,6.95a14.71,14.71,0,0,0-7.79-2.3,3.74,3.74,0,0,1,1.19-1.25l-.79-1.83c-.9.33-3.64,1-5.43,0a3.28,3.28,0,0,1-1.53-1.8c.53-.3,1.36-.64,2.11-1,2.31-1,4.92-2.05,6-3.94l.12-.22v-.25c0-2.27,2.55-4.67,4.63-5.05l1-.26-.21-1c-.54-2.62-.33-4.51.53-4.81,1.41-.48,4.87,3.28,5.2,4.17l.24.95,1-.21c3.28-.74,26.79-2.18,41.38,2.19,1.56.47,3.07.89,4.54,1.3,12.58,3.54,20.9,5.88,24,23.33,2.57,14.45,3,19.72,3,21.45Z"></path><circle cx="14.65" cy="35.17" r="1"></circle></svg>