<svg xmlns="http://www.w3.org/2000/svg" data-name="Layer 1" viewBox="0 0 100 100" x="0px" y="0px"><title>icons_animals_4</title><path d="M98,39.58a21.28,21.28,0,0,1-5.46-1.3,27.85,27.85,0,0,0-.25-8.87,1,1,0,0,0-2,.22c0,1.3-1,3.81-2.29,6.27a28.09,28.09,0,0,1-7.38-7.64c4.13-9,2.77-9.84,2.18-10.2a3,3,0,0,0-3.06.33,1.54,1.54,0,0,0-.74-.84c-1.14-.57-4.48.76-8.23,2.67-14.64-3-29.76-.06-32.54,1-2.2.85-9.16.64-11.74.49A28.27,28.27,0,0,0,8.57,29.91a14.11,14.11,0,0,0-3.85,6.76c-1.79.84-4.25,3.22-3.4,7.71C2.32,49.67,2.89,50.83,3,51a1,1,0,0,0,.85.49,1,1,0,0,0,.9-1.45s-.52-1.11-1.46-6a5,5,0,0,1,1-4.57C3.93,44.32,5.56,49,6.39,51.28c.2.56.37,1,.43,1.29.25,1-2.15,4.2-4.55,6.51a1,1,0,0,0-.31.77l.84,18.31a1,1,0,0,0,1,1H9.74a1,1,0,0,0,1-1.18,81.09,81.09,0,0,1-1.29-9.54c.07-1.59,1.4-2.94,3.94-4l4.33,14a1,1,0,0,0,1,.71H25a1,1,0,0,0,.91-1.42l-4-8.55L21.81,69c-.49-.71-1.34-2.48-.7-3.07a5.37,5.37,0,0,1,1.42-.65c2.2-.81,5.81-2.13,6.9-7.88a77.3,77.3,0,0,0,8.59.49,67.71,67.71,0,0,0,8.08-.48,16.83,16.83,0,0,0,1.34,6.33c1.76,3.17,4.05,14.47,4.08,14.58a1,1,0,0,0,1,.8H59a1,1,0,0,0,.94-1.34l-3.35-9.2a1,1,0,0,0-.35-.46c-.07-.09-.71-1.07.55-4.2L64,78.56a1,1,0,0,0,.9.56h6.06a1,1,0,0,0,.9-1.43L67.44,68.4a1.1,1.1,0,0,0-.29-.36c-.05,0-1.29-1.11-.49-3.86.85-2.93,1.86-7.39,2.19-8.85a22.16,22.16,0,0,0,3.21-1.91,10.14,10.14,0,0,0,2.15.22A24.84,24.84,0,0,0,82,51.9c.78-.27,1.52-.52,2.13-.69,4.31-1.18,8.73.94,8.78,1a1,1,0,0,0,1.32-.42c.77-1.42,4.58-8.62,4.58-11.16A1,1,0,0,0,98,39.58ZM79.32,26.19c-.54-1-.91-1.73-1.1-2.17a23.09,23.09,0,0,0,1.24-3,6.22,6.22,0,0,1,2-1.28A29.43,29.43,0,0,1,79.32,26.19ZM21.85,63.41a6.06,6.06,0,0,0-2.1,1.07c-2,1.84,0,5,.37,5.59l3.3,7.06h-4L15.24,63.64A6.4,6.4,0,0,0,19.07,59l1.83-3.09c1.11.27,3.42.78,6.55,1.21C26.56,61.68,24,62.63,21.85,63.41Zm42.89.22c-1,3.43.41,5.24,1,5.81l3.63,7.69H65.48L57.89,61.6c.84-1.62,1.71-3,2.52-4.31h.38a18.17,18.17,0,0,0,5.8-1C66.13,58.24,65.38,61.39,64.73,63.62ZM92.94,50a15.54,15.54,0,0,0-9.29-.71c-.67.18-1.44.45-2.25.73-3.13,1.08-7.42,2.56-10.57.87-1.92-1-3.32-3.19-4.16-6.42a1,1,0,1,0-1.94.5c1,3.72,2.66,6.28,5,7.6a18.09,18.09,0,0,1-8,2.69A17.6,17.6,0,0,0,64,50.49,1,1,0,1,0,62,50a21.05,21.05,0,0,1-2.9,5.57,58.93,58.93,0,0,0-3.3,5.67l0,0c-.11.22-.22.41-.32.64-2.36,5-1.36,6.94-.69,7.61l2.77,7.62H53.31c-.57-2.71-2.48-11.4-4.12-14.36-1.41-2.53-1.26-10.26-1.08-13a1,1,0,0,0-.93-1.06,1,1,0,0,0-1.06.93c0,.52-.17,3-.1,5.79a74.63,74.63,0,0,1-24-1.27c.95-1.58,1.73-2.85,1.91-3.08a1,1,0,0,0-1.54-1.27c-.48.58-4,6.58-5.11,8.4a1.06,1.06,0,0,0-.14.43c0,.1-.24,2.37-3.43,3.5-4,1.43-6.12,3.52-6.24,6.19a67.06,67.06,0,0,0,1.11,8.81H4.74L4,60.21c1.62-1.61,5.38-5.65,4.79-8.11-.09-.36-.25-.83-.49-1.49-1.38-3.9-4.61-13,1.71-19.28a26.8,26.8,0,0,1,16.43-7.61c1,.06,9.51.54,12.51-.62,2.41-.93,15.73-3.48,29-1.37-1.2.65-2.39,1.33-3.52,2a1,1,0,1,0,1,1.73c4.86-2.83,10.72-5.77,12.49-6.05a4.12,4.12,0,0,1-.15.66v0a23.75,23.75,0,0,1-1.48,3.46l0,0c-.61,1.2-1.34,2.52-2.14,3.83a1,1,0,1,0,1.71,1c.35-.57.82-1.35,1.3-2.23A31.15,31.15,0,0,0,87,37.68c-.88,1.61-1.74,3.06-2.29,3.94a1,1,0,0,0,1.7,1.06,74.13,74.13,0,0,0,4.31-7.93,27.27,27.27,0,0,1-1.63,9.11,1,1,0,0,0,.61,1.28,1,1,0,0,0,.34.06,1,1,0,0,0,.94-.66,30.71,30.71,0,0,0,1.17-4.24,23.23,23.23,0,0,0,4.55,1.15A54.55,54.55,0,0,1,92.94,50Z"></path><circle cx="75.6" cy="34.11" r="1.5"></circle></svg>