<svg xmlns="http://www.w3.org/2000/svg" data-name="Layer 1" viewBox="0 0 100 100" x="0px" y="0px"><title>icons_food_8</title><path d="M96.33,71.87H91.56a20,20,0,0,0,4.66-12.46c0-11.75-11.8-22.28-29.51-26.49A11.33,11.33,0,0,0,68.38,30,7,7,0,0,0,66,21.69a7,7,0,0,0,2.84-2.83l.61-1-1.13-.41a8.74,8.74,0,0,0-3.21-.59,8,8,0,0,0-.3-4.13l-.38-.89-.9.36A6.65,6.65,0,0,0,60.38,15a8.85,8.85,0,0,0-2.78-1.56l-1.13-.41-.2,1.19a7,7,0,0,0,.37,4.05,8.79,8.79,0,0,0-2,.22A6.73,6.73,0,0,0,50,22.25c-.16-.15-.31-.3-.47-.43a5.9,5.9,0,0,0-5.66-1.3,7.32,7.32,0,0,0-1.36.58,6.09,6.09,0,0,0-1.42-2.89l-.77-.93-.77.93a7.66,7.66,0,0,0-1.29,2.14,5.57,5.57,0,0,0-3.42-.67l-1,.15.12,1a6.55,6.55,0,0,0,1.42,3,7.61,7.61,0,0,0-1.93,1.7l-.77.92,1.05.59a6.26,6.26,0,0,0,3,.87h0a7.4,7.4,0,0,0-.36,1.56,5.66,5.66,0,0,0,.36,2.72C17.28,35.7,3.72,46.79,3.72,59.41A20,20,0,0,0,8.37,71.87H3.6v1a8.56,8.56,0,0,0,7.55,8.48v3.73H89.39V81.26a8.56,8.56,0,0,0,6.94-8.39ZM66.39,18.92a3.44,3.44,0,0,1-2.6,1.3c-.31-.16-.62-.31-1-.45A3.68,3.68,0,0,1,66.39,18.92Zm-3.11-4.28A9.85,9.85,0,0,1,63,17.27a5.07,5.07,0,0,0-.9.51,5.06,5.06,0,0,0-.39-1A6,6,0,0,1,63.27,14.64Zm-3,4.23q-.5-.14-1-.25a3.42,3.42,0,0,1-1.19-2.7A3.67,3.67,0,0,1,60.32,18.87Zm-8.81,5a4.89,4.89,0,0,1,3.56-3.4,6.73,6.73,0,0,1,1.57-.17,13,13,0,0,1,4.35.88c3.42,1.25,7.15,3.67,5.51,8.16S56.56,39.41,54.6,38.7C52.15,37.8,49.83,28.5,51.51,23.88ZM40.34,20.66a2.56,2.56,0,0,1,.13,2l-.4.39A2.86,2.86,0,0,1,40.34,20.66Zm-1.87,9a8.65,8.65,0,0,1,2.16-4.32,8.65,8.65,0,0,1,3.85-2.91,3.89,3.89,0,0,1,3.8.92,7.22,7.22,0,0,1,1,1.08,22.81,22.81,0,0,0,1,11.15c-3.09.31-8.13-.61-10.2-2.34A3.88,3.88,0,0,1,38.48,29.67Zm-.53-7.19a4.42,4.42,0,0,0,.08.6,4.41,4.41,0,0,0-.55,0,8.48,8.48,0,0,1-1-1.34A4.94,4.94,0,0,1,37.95,22.48ZM36.07,25.8a2.86,2.86,0,0,1,2.24-.68l-.32.47A2.57,2.57,0,0,1,36.07,25.8ZM38,34a7.55,7.55,0,0,0,.8.78C41,36.59,45.49,37.63,49,37.63a13.58,13.58,0,0,0,2.06-.15,5.94,5.94,0,0,0,2.84,3.1,2.79,2.79,0,0,0,1,.15c2.68,0,7.21-2.82,10.36-6.09C78.46,37.55,88.37,44,92.32,51.82c-2.66.59-3.76-1-5.1-3-1.17-1.71-2.49-3.65-5-3.65-2.91,0-4.31,2.46-5.54,4.64-1.36,2.4-2.32,3.86-4.21,3.86-1.39,0-1.85-1.15-2.57-3.76C69.09,47,68,43.07,63,43.07S57.2,48,56.58,52c-.57,3.62-1,5.82-2.87,5.82-2.24,0-2.64-.91-3.32-2.42-.75-1.67-1.77-4-6.06-4S39.44,55,39,57.52c-.48,2.91-.88,4.55-3.56,4.55s-3.28-3.3-3.86-8.34c-.5-4.36-1-8.87-4.75-8.87h0A6.84,6.84,0,0,0,20.71,48a5.46,5.46,0,0,1-4,2.56,3.8,3.8,0,0,1-3-.69,6.48,6.48,0,0,1-2-3.71C17.35,40.38,26.65,35.91,38,34ZM5.72,59.41A18.14,18.14,0,0,1,10.12,48a7.56,7.56,0,0,0,2.34,3.5A5.78,5.78,0,0,0,17,52.57a7.34,7.34,0,0,0,5.3-3.3c1.06-1.34,1.9-2.39,4.57-2.41h0c1.82,0,2.28,2.81,2.77,7.1.54,4.74,1.16,10.12,5.84,10.12,4.51,0,5.1-3.6,5.53-6.23.48-2.9.84-4.41,3.35-4.41,3,0,3.51,1.17,4.23,2.79s1.61,3.6,5.14,3.6,4.29-4,4.84-7.51c.71-4.5,1.36-7.24,4.41-7.24,3.28,0,4.07,2,5,5.4.68,2.45,1.44,5.23,4.5,5.23s4.66-2.59,6-4.88,2.17-3.62,3.8-3.62c1.39,0,2.18,1.06,3.36,2.78,1.42,2.08,3.32,4.86,7.58,3.7a16.21,16.21,0,0,1,1.07,5.73c0,4.34-1.82,8.64-5.27,12.46H11C7.54,68,5.72,63.75,5.72,59.41ZM87.39,83.08H13.15V81.41H87.39Zm.39-3.66H12.15a6.56,6.56,0,0,1-6.47-5.55H94.25A6.56,6.56,0,0,1,87.78,79.41Z"></path></svg>