<svg xmlns="http://www.w3.org/2000/svg" data-name="Layer 1" viewBox="0 0 100 100" x="0px" y="0px"><title>icons_animals_2</title><path d="M82.07,51.54c-3.32-10.89-12.55-16.18-20-20.43-4.94-2.83-8.84-5.07-8.95-7.86-.35-9-4.82-12.59-7.75-14A12.36,12.36,0,0,0,38.93,1.9l-1.27-.52-.29,3.86-7-3.07L32.58,13.5c-1.75,1.25-3.64,2.65-5,3.81l-.27.23-.07.34c-.88,4.5,4.61,7.61,6.75,8.63-.79,3.14-2.95,14.11,2.71,22.6,6.3,9.45,5.22,18.29,3.44,22.43-3.69.33-5.83,1.38-6.54,3.21-1,2.61,1.58,5.39,1.88,5.7l.29.3H69.62c.05,3.13-1,5.53-3,7-3.49,2.49-9.5,2.15-16.49-.92-3.83-1.68-7.25-1.49-9.15.51a4.56,4.56,0,0,0-.59,5.33c1.57,3.1,6.35,6,15.24,6a49.58,49.58,0,0,0,6.09-.4c8.64-1.07,14.17-4.05,16.45-8.87,2.94-6.23-.59-13.41-1.77-15.5C78.14,71.34,85,60.64,82.07,51.54Zm-49-46,4.16,1.82L37,10.46c-.51.35-1.47,1-2.61,1.79ZM47.33,78.77a4,4,0,0,1,.08-3.07c.48-.75,1.53-1.15,3.1-1.17,3.76,0,4.9.92,4.91.92l3.2,3.32Zm27-5.53-.41.55.37.58c0,.08,4.94,7.94,2,14.17-2,4.15-7,6.75-14.88,7.73-11.83,1.46-17.78-1.51-19.3-4.5a2.55,2.55,0,0,1,.26-3,3.9,3.9,0,0,1,2.89-1,10.08,10.08,0,0,1,4,1C57,92,63.68,92.28,67.75,89.38c2.85-2,4.17-5.38,3.82-9.69l-.07-.92h-12L57,74.28c0-.07-4-7.35-1.34-12.31,1.38-2.62,4.43-4.18,9-4.64l-.2-2c-5.33.53-8.9,2.44-10.62,5.69-2.12,4-.82,9,.29,11.84a17.2,17.2,0,0,0-3.71-.35,8,8,0,0,0-2.54.41,112.06,112.06,0,0,0,1.51-16.07l-2,0c-.11,4.92-1,18.41-3.48,21.72l.29.22H36.65c-.62-.75-1.59-2.25-1.18-3.29s2.33-1.78,5.4-2l.58,0,.25-.52c2.8-5.72,2.85-15.65-3.34-24.93-6-9-2.27-21.64-2.23-21.77l.26-.88L35.55,25c-1.91-.77-6.63-3.38-6.39-6.43,3.27-2.7,9.28-6.71,9.34-6.75l.41-.27.53-7.1a10.53,10.53,0,0,1,4.2,5.79l.13.46.44.19c2.46,1.06,6.64,4.07,7,12.42.15,3.9,4.47,6.38,10,9.52,7.11,4.08,16,9.15,19.05,19.29C83.13,61.35,74.46,73.12,74.38,73.24Z"></path><circle cx="38.26" cy="16.5" r="1.54"></circle></svg>