<svg xmlns="http://www.w3.org/2000/svg" data-name="Layer 1" viewBox="0 0 100 100" x="0px" y="0px"><title>icons_animals_7</title><path d="M19.83,40.94c5.81-3.43,16.34-5.25,20.34-2.49l2.72,1.87-1.22-3.07c-1.11-2.79-10.37-8.66-22.49-6.91-6.5.94-12,3.94-15.15,8.23A12.54,12.54,0,0,0,1.54,48c1.25,7.52,8.57,14.9,18.56,14.9.63,0,1.28,0,1.93-.1a6.11,6.11,0,0,0,1,1.26,27.78,27.78,0,0,0,4,3.37l.26.16L41.64,67,35.8,63.51l14.49.1c.14.16.29.32.45.48a27.74,27.74,0,0,0,4,3.37l.26.16L69.34,67,63.5,63.51c5,0,13.94.1,21.08.1,5.36,0,9.68,0,10.51-.14a2.4,2.4,0,0,0,2-1.25,3,3,0,0,0,0-2.25,5.13,5.13,0,0,0,1.37-2.81,2.76,2.76,0,0,0-.44-2.51c-.8-.82-2-.6-3.62-.33a18,18,0,0,1-4.33.37c-2.31-.14-4.73-2.65-6.86-4.86-1.95-2-3.62-3.76-5.35-4a5.84,5.84,0,0,0-3.89.84l-1.39-.61L72,42.58l-3.49,2c-1.31-.44-2.76-.88-4.28-1.26l-1.33-3.52L60.14,42.5a23.55,23.55,0,0,0-5-.18L52,39.49l-1.8,3.22L45,43.07l-2.24-2.22-1.88,2.49-4.73.31-2.57-3.2-1.52,3.46-4.55.29L24.9,40.85l-1.37,3.61-1.57.1c-1.72-.42-3.67-1.34-3.77-2C18.16,42.33,18.47,41.75,19.83,40.94ZM8.11,56.07a13.88,13.88,0,0,0,4.66,1.12c2.4.17,4.59.22,6.44.22,1.48,0,2.74,0,3.73-.08l-.64.76a4,4,0,0,0-.9,2.76A16.77,16.77,0,0,1,8.11,56.07Zm24.57,5.41a.4.4,0,0,1,0-.15c0-.17.24-.39.59-.58a9.73,9.73,0,0,0,3.57-3.35L50.89,57,50,58.09a4,4,0,0,0-.78,3.51Zm62.61-.16c0,.06-.19.13-.46.17-1.84.23-25,.08-34.46,0a.41.41,0,0,1,0-.16c0-.17.25-.38.59-.58A9,9,0,0,0,64.9,56.6c2.4.65,7.91,1.95,11.18,1s6.08,2.8,6.11,2.84l.3.4,11.88-.06a3.19,3.19,0,0,0,.93,0A.82.82,0,0,1,95.3,61.32ZM16.22,42.86c.38,2.41,4.6,3.49,5.44,3.68l.14,0h.14c.25,0,25.35-1.56,33.35-2.24,6.1-.52,14,2.53,17.06,3.85-.14.17-.21.28-.23.31l1.67,1.09a4.19,4.19,0,0,1,3.85-1.72c1,.13,2.62,1.78,4.16,3.38C84.2,53.71,86.9,56.51,90,56.7a19.8,19.8,0,0,0,4.8-.4,10.07,10.07,0,0,1,1.82-.22,2.74,2.74,0,0,1-.07.7,2.87,2.87,0,0,1-1,1.91,1.15,1.15,0,0,1-.8.17l-.14,0-11.17.05c-1-1.14-4.11-4.21-7.91-3.16-2.84.78-8.13-.51-10.28-1.09a6.16,6.16,0,0,0-1.11-3.31l-1.67,1.1a3.76,3.76,0,0,1,.7,3c-.43,1.81-2.4,3.11-3.23,3.58a2.85,2.85,0,0,0-1.57,2A2.74,2.74,0,0,0,59,63.15l3.5,2.12-7,.32a32,32,0,0,1-3.43-2.95c-1.75-1.68-.82-3-.62-3.25l5.21-6.19-1.53-1.29L52.61,55l-15.07.39a5.86,5.86,0,0,0-1.07-4.06l-1.67,1.1a3.76,3.76,0,0,1,.7,3c-.43,1.81-2.4,3.11-3.23,3.58a2.85,2.85,0,0,0-1.57,2,2.74,2.74,0,0,0,.65,2.13l3.5,2.12-7,.32a32,32,0,0,1-3.42-2.95c-1.75-1.68-.82-3-.62-3.25L29,53.2,27.5,51.91l-2.79,3.31a86.52,86.52,0,0,1-11.8,0A10.58,10.58,0,0,1,4.15,50a12.76,12.76,0,0,1-.64-2.35,10.56,10.56,0,0,1,2.13-7.93c2.81-3.85,7.85-6.56,13.82-7.43a27.56,27.56,0,0,1,17.11,2.91c-5.47-.63-12.94,1.13-17.76,4C18.1,39.64,15.92,40.93,16.22,42.86Z"></path><circle cx="78.06" cy="51.87" r="1.5"></circle></svg>