<svg xmlns="http://www.w3.org/2000/svg" data-name="Layer 1" viewBox="0 0 100 100" x="0px" y="0px"><title>icons_animals_3</title><path d="M76,27l9,1.3,0-.09H95.93l3-3.86-1.58-1.22-2.38,3.08H86.06l1.19-2.35,5-5.56-1.49-1.33-4.16,4.65-1.73-2.82-1.71,1,2.15,3.52-1.42,2.75-6.8-1,1.28-5.65,5.34-5.15-1.39-1.44-4.43,4.27L76.79,14l-1.89.66L76.4,19,75,25.26l-2,1-4.5-2.57,2.23-3.32-1.66-1.11L67,22.38l-3-3.62,4.21-3.62L66.9,13.62,63,17l-2.27-4.9L58.87,13l2.51,5.41-.17.15,5.2,6.3,5.89,3.36.09.11c-1.66-.93-3.34-1.66-4.36-1.5a1.72,1.72,0,0,0-1.48,1.81,6.8,6.8,0,0,0,1.78,3.87L61.85,40a102.69,102.69,0,0,0-16.59,1.65c-3.45.67-7.64.27-11.7-.12C27.79,41,22.35,40.47,19.19,43a11.86,11.86,0,0,0-2.53,2.76c-1.57.37-6,2.25-6,11.86v1h1a3.91,3.91,0,0,0,2.68-1.42c0,.89,0,1.8.06,2.73l0,.8a6.75,6.75,0,0,1-.81,1.84,3.59,3.59,0,0,0-.66,2,32.85,32.85,0,0,0-4.26,2.62l-.22.15L1.55,82.4v3.4H6.93l-.14-2.91c.34-1.1,2.71-8.21,8.87-12.33q1.87-1.25,3.42-2.32A13.84,13.84,0,0,0,18,69.82c-.23.46-.76,1.53,5.38,13.44l-.22,2.53h5.93l.12-.86c.21-1.49-1-4-2.9-7.73-.55-1.08-1.06-2.09-1.44-2.93a2.64,2.64,0,0,1-.31-1.92.73.73,0,0,1,.37-.38l.24-.07,8.74-8.36.74.27c3.88,1.53,6.19,1.95,14.94,1.84.45,2,1.65,6.91,3,9-.57,3.1-1.15,9.75-1.17,10l-.09,1.08h5.51V83.39A76.8,76.8,0,0,0,58,73.57c-.07-1.73.24-5.71.43-7.93l6.82,4A4.86,4.86,0,0,1,67,72.12C67.59,74,70.39,84.94,70.42,85l.19.75h4.72l.28-.24c.87-.75.62-2.63-.74-5.59a86.62,86.62,0,0,1-3.58-11.43c0-.58-.45-2.24-3.19-4a15.53,15.53,0,0,0-1.79-1l-.51-.25a11.61,11.61,0,0,0,5.06-3.4,22.5,22.5,0,0,1,2.31-2.07,11.24,11.24,0,0,0,4.17-6.18l1.94-8.49c.87-.05,1.75-.13,2.63-.23,1.18-.13,2.39-.26,3.51-.28C89,42.6,90,42.13,91,41.09s1-4.36.48-5.51a1.34,1.34,0,0,0-1-.86c-2.68-.83-6.53-2.57-7-3.33-.8-1.25-4.1-1.43-7.17-1.31L74.5,27.75ZM12.72,56c.23-4.08,1.41-6.16,2.52-7.22a19.89,19.89,0,0,0-.82,4.87A10.12,10.12,0,0,1,12.72,56Zm11.4,14.14a2.74,2.74,0,0,0-1.34,1.33,4.3,4.3,0,0,0,.29,3.6c.4.88.93,1.92,1.48,3a42.22,42.22,0,0,1,2.58,5.69H25.36l.08-.94-.13-.26c-2.53-4.89-5.25-10.75-5.42-12,.22-.37.69-1,1.15-1.65a16.78,16.78,0,0,0,2.32-3.72c1.52-1.1,2.49-1.84,2.88-2.14A16.64,16.64,0,0,1,31.6,63Zm30.76,13v.65H53.54c.2-2.18.68-7.06,1.13-9.16l.1-.47-.31-.37c-.94-1.14-2.11-5.22-2.8-8.18l4.73-.11c-.19,2.27-.5,6.29-.43,8.14A79.62,79.62,0,0,1,54.88,83.14ZM81.8,32.47c1.12,1.75,6.63,3.67,7.92,4.1a7.71,7.71,0,0,1-.17,3.16c-.44.47-.81.88-4.14.92-1.22,0-2.48.16-3.71.29-2.43.27-4.73.52-6.26-.2-2-1-2.26-2.08-2.27-2.09l-2,.24c0,.22.35,2.23,3.4,3.66a7.4,7.4,0,0,0,2.64.62l-1.84,8a9.25,9.25,0,0,1-3.41,5l-.18.14a46,46,0,0,1,3-6.56l.93-1.73-3,.41,2-4.16L73,43.44,69.26,51l2.82-.39c-1.34,2.67-2.79,6-2.67,7.92-1.56,1.53-2.85,2.77-5.13,3a10.12,10.12,0,0,1-.14-2.88l-2-.11c-.25,4.81,1.08,5.71,3.29,6.77A13.83,13.83,0,0,1,67,66.2c2.12,1.37,2.28,2.47,2.28,2.47v.13l0,.13c.08.33,2,8.07,3.73,11.88a11.48,11.48,0,0,1,1,3H72.16c-.65-2.53-2.72-10.56-3.19-12.21A6.87,6.87,0,0,0,66.24,68L54.69,61.12l-1,1.72,1.18.7c-13.44.33-15.37,0-19.45-1.6a18,18,0,0,0-9.82-.79l-.21.05-.17.13s-3.73,2.91-10.65,7.54C7.28,73.75,4.91,82.14,4.81,82.5l0,.15.06,1.14H3.55v-1l6.54-14.19a21.92,21.92,0,0,1,4.23-2.47l.92-.25L15,65c-.14-.63,0-.79.32-1.4a8.69,8.69,0,0,0,1.06-2.5l0-.13,0-1.09c-.2-6.86-.34-11.82,4-15.3,2.53-2,7.58-1.54,12.93-1,4.2.4,8.54.82,12.27.09A100.72,100.72,0,0,1,62.31,42h.46l7-8.14a5.66,5.66,0,0,0,2.32,1.08l.37-2a5.59,5.59,0,0,1-3.2-2.58,4.37,4.37,0,0,1-.7-1.62c1.18.15,4.55,2.16,7.21,4.13l.61-.83C79,32,81.39,32.18,81.8,32.47Z"></path><circle cx="79.17" cy="34.69" r="1.08"></circle></svg>