<svg xmlns="http://www.w3.org/2000/svg" data-name="Layer 1" viewBox="0 0 100 100" x="0px" y="0px"><title>icons_animals_4</title><path d="M99,23.57l-8.14-.88a7.75,7.75,0,0,0-6.46-4.19c-4.05-.42-6,1-15.17,7.65-2.61,1.89-5.84,4.24-9.89,7.11-4.91.13-25,.36-25.19.37-.41,0-10.16.28-15.1,8.88-2,3.41-3.11,5.91-4,7.91-2.15,4.66-2.73,5.91-8.93,8.65-4.15,1.48-3.92,7.13-3.91,7.37l0,.93.93,0H3.5A30.91,30.91,0,0,0,13,65.82L8.86,71.33,6.71,82.63h19v-1a4,4,0,0,0-1.24-2.78,3.82,3.82,0,0,0-1.94-.92c.92-1.32,2.74-3.48,4.18-5.17,2.67-3.16,5.43-6.42,6.18-8.25s2-4.82,3-7.38c2.26.79,8.58,2.59,19.93,3-.14,4-.55,12-1.18,14.13-1,3.34,1.23,7.68,1.32,7.86l.28.54h8.9l-.18-1.15a6.2,6.2,0,0,0-2.06-3.77,3.28,3.28,0,0,0-1.64-.61,35.76,35.76,0,0,1,1.41-8.19c1.88,7,4,13.19,5.5,13.68l9,0-.47-1.33c-.53-1.5-2.23-4.1-5.08-4C70,74.2,71.4,62.24,73.24,57.22a14,14,0,0,0,.82-3.9c.35-.9,1.1-3.35,1.17-3.58,0,0,1.38-3.51,2.48-6,.75-1.66,6.27-7.25,10-10.79h8.06l.3-.34c4.4-5.07,3.31-8.19,3.17-8.53ZM97.39,26a1.53,1.53,0,0,1-.2-.64l.25,0A4.41,4.41,0,0,1,97.39,26ZM64.05,32.36c1.38,2.8,5.43,9.84,11.7,10.9l-.22.51c-8.46-.94-11.79-8.31-12.62-10.59ZM9.13,80.63l1.61-8.46L16.91,64a13.22,13.22,0,0,0,3.37-3l.59,3.41-4.7,7.17v1.17c-1.6,1.18-5.09,4-5.09,6v.94l.94.05a1.81,1.81,0,0,1,1.35.88Zm6.76.76a5.32,5.32,0,0,0-2.49-3.32,16.6,16.6,0,0,1,2.77-2.78v7.24Zm43.68-2.73.36.56.66-.11a1.35,1.35,0,0,1,1.08.22,3,3,0,0,1,.92,1.3H57.44c-.5-1.14-1.51-3.85-.93-5.84.76-2.61,1.15-11.64,1.26-14.65.9,0,1.78-.06,2.63-.14.41,1.75.86,3.6,1.32,5.45C60.48,68.26,58.41,76.83,59.58,78.66ZM71.36,56.53c-1.77,4.83-3.92,19.19-1.07,22.5l.38.44.57-.11A2.75,2.75,0,0,1,74,80.63H68.84c-.6-.85-3-5.22-7.44-25.22l-2,.44L59.94,58a28.53,28.53,0,0,1-3.12.11c-11.54-.29-18-2.11-20.23-2.87l1-2.51L35.74,52S32.37,60.37,31,63.75c-.63,1.54-3.4,4.82-5.85,7.72-3.79,4.48-5.22,6.28-5.22,7.41V80l1.1-.11a2.64,2.64,0,0,1,2.06.45,1.55,1.55,0,0,1,.27.31H18.17V72.17L23,64.84,20.78,52.2l-2,.34,1,5.51c-3.09,6.3-12.45,7.19-15.56,7.31.12-1.36.63-3.73,2.62-4.45,7-3.06,7.79-4.86,10-9.67.91-2,2-4.42,4-7.75,4.36-7.6,13.31-7.87,13.39-7.87s21.18-.25,25.52-.38H60l.25-.17,1-.7c1.22,3,5,10.07,13.48,11.31-.46,1.11-.87,2.13-1.12,2.76A12.06,12.06,0,0,0,73,46.72l-1.83.81A13.23,13.23,0,0,1,71.36,56.53ZM94.83,31H86.9l-.29.27a125.41,125.41,0,0,0-9.67,10.1c-6-.33-10.09-7.83-11.23-10.2l4.7-3.4.22-.16c.11.36,2,6.17,5.39,7.77a4.22,4.22,0,0,0,1.81.42,4.3,4.3,0,0,0,1.62-.33c2.79-1.13,3.57-7.86,3.12-13.63l-2,.16c.51,6.52-.75,11.16-1.88,11.62a2.15,2.15,0,0,1-1.83,0c-2.18-1-3.87-5.09-4.34-6.58l-1.85.58c8.65-6.28,10.26-7.42,13.51-7.08,4,.42,5,3.31,5,3.43l.19.63,5.77.62a3.53,3.53,0,0,0,1.54,3A13.94,13.94,0,0,1,94.83,31Z"></path><circle cx="86.14" cy="24.29" r="0.86"></circle></svg>