<svg xmlns="http://www.w3.org/2000/svg" data-name="Layer 1" viewBox="0 0 100 100" x="0px" y="0px"><title>icons_animals_3</title><circle cx="84.68" cy="32.92" r="1.61"></circle><path d="M94.2,31.16a9,9,0,0,1-3.2-1,16.51,16.51,0,0,0-9.13-3.59A5.05,5.05,0,0,0,80.07,25a3.39,3.39,0,0,0-2.76-.1,3,3,0,0,0-1.84,1.87,3.85,3.85,0,0,0-.17,1.38,8.73,8.73,0,0,0-3.36,3.32c-.26.49-.52,1.1-.8,1.75-1,2.39-2.44,5.67-4.89,6.29-1.61.41-3.63-.35-6-2.24-9-7.11-21.54-6.14-29.87,2.32C22.94,47.12,26.51,58,27,59.48c0,.58-1,2.1-5.27,3.18A9.25,9.25,0,0,1,13.12,60a8.17,8.17,0,0,1-2.19-8,9.07,9.07,0,0,1,7.53-7c1.65.13,4.75-.46,5.34-3.53s-1.32-4.47-2.41-4.7c-8.15-1.91-14.91,3.15-18,9C-.4,53,.84,61,6.58,66.25c10.39,9.46,20.9,3.68,24.13,1.48l4.23,8.4H52.31L52.11,75a6,6,0,0,0-.19-.78H55.7l-.1-1.09c-.33-3.57-5.29-4.65-7.87-5l4-8.77A16.42,16.42,0,0,1,56.58,59a7.38,7.38,0,0,1,5.88,3.07l3.69,14H77.89v-1a4.44,4.44,0,0,0-.11-.95h4.64l-.05-1c-.16-3.37-4.05-4.47-6.12-4.81L80.08,55.9a22.88,22.88,0,0,0,5.36-13c7.13-2.08,11.85-6.29,12.54-8.63a1.75,1.75,0,0,0-.3-1.76C96.93,31.69,95.6,31.43,94.2,31.16Zm-41.1,41H50.76A8.11,8.11,0,0,0,45.66,70l.52,0C47.73,70.06,51.67,70.61,53.09,72.17Zm-8.38-2.29c-.45,0-.88,0-1.3,0A58.35,58.35,0,0,1,47,63.52a15.66,15.66,0,0,1,1.62-2.15Zm30.17.28s3.9.27,5.12,2H76.64l0,0a7.16,7.16,0,0,0-4.52-1.38c1-2.79,3-8.71,3.48-11,.56-.35,1.08-.71,1.58-1.09L73.61,70.09Zm9.29-29-.8.21.05.82c.18,2.73-1.68,11.59-9.29,16.05l-.42.25-.07.48c-.23,1.66-2.94,9.57-4,12.48L69.16,73l1.62-.21c.8-.1,3.36-.18,4.51.83a1.74,1.74,0,0,1,.39.49h-8l-3.34-12.7-.11-.26A9.36,9.36,0,0,0,56.63,57c-4.92-.13-7.87.07-11.3,5.41a49.21,49.21,0,0,0-4.46,8.27l-.62,1.63L42,72c.07,0,6-1,7.75,2.08H36.17L31.4,64.64l-1,.82c-.46.39-11.4,9.43-22.5-.68C1.8,59.19,2.62,51.52,5.18,46.64c2.72-5.17,8.66-9.66,15.76-8,.3.08,1.26.48.89,2.38-.41,2.13-3.17,1.91-3.29,1.9h-.17A11.2,11.2,0,0,0,9,51.45a10.12,10.12,0,0,0,2.69,9.94,11.12,11.12,0,0,0,10.55,3.21C29.57,62.76,29.07,59.42,29,59l0-.14c0-.11-4.05-10.92,2.84-17.93,7.6-7.72,19-8.63,27.21-2.16,2.94,2.33,5.47,3.18,7.74,2.61,3.41-.86,5-4.66,6.24-7.44.27-.62.5-1.18.73-1.62a6.28,6.28,0,0,1,2-2.15,12.24,12.24,0,0,0,1.08,2.24l1.69-1.06c-.53-.84-1.51-2.93-1.15-4a1,1,0,0,1,.66-.63,1.39,1.39,0,0,1,1.17,0c1.13.55,1.94,2.47,2.15,3.16l1.91-.58c0-.08-.1-.32-.23-.64a15.39,15.39,0,0,1,6.8,3.08,10.42,10.42,0,0,0,4,1.35,8.18,8.18,0,0,1,2.25.63C95.72,35.06,91.49,39.25,84.18,41.19Z"></path></svg>