<svg xmlns="http://www.w3.org/2000/svg" data-name="Layer 1" viewBox="0 0 100 100" x="0px" y="0px"><title>icons_animals_3</title><path d="M98.66,28.7l-1.13.24C97.47,29,91,30.25,89.21,27a8.41,8.41,0,0,0-4.74-3.61c-.69-3.77-5.93-8.35-6.57-8.89l-1.3-1.11-.74,3.75c-.59-.61-1-1-1.18-1.19L73,14.33v9.88a32.72,32.72,0,0,0-7.81,10.41c-6.79,1.57-33,7.1-33.26,7.16S2.38,49.51,1.26,81.62l0,.86.85.16a5.92,5.92,0,0,0,1.07.09c4.61,0,11.43-4.71,17.26-11.27L23.24,87.3h9.45l0-1A6.66,6.66,0,0,0,29.15,81a32.76,32.76,0,0,1-2.05-6.55c.46-.41,1.08-1,1.64-1.56a77.8,77.8,0,0,0,4,8.12c1.22,1.83,1.15,5.25,1.15,5.28l0,1h9.76l0-1a5.06,5.06,0,0,0-3.91-5.52L36,74.51A10.68,10.68,0,0,1,37.18,72a25.72,25.72,0,0,0,11.67-9.38c3.47.4,7.36.58,9.21.65-.32,3.89-1.22,16-.49,18.67.81,3,1.42,4.59,1.44,4.66l.24.65h8.33l.12-.86A5.07,5.07,0,0,0,64.65,81,32,32,0,0,1,65,75l3.45,12.3h9.75l0-1a5.16,5.16,0,0,0-3.09-4.79c-1.6-.64-2.24-2.95-2.76-4.8-.14-.49-.26-.95-.4-1.36-.45-1.36.26-7.35.83-10.91,3.09-6.79,12.17-24.3,18-25.69,8.3-2,7.94-8.85,7.94-8.92Zm-2.31,3.49a3,3,0,0,1-.47-1l.77-.07A6.35,6.35,0,0,1,96.35,32.19ZM77.9,17.2a20.43,20.43,0,0,1,4.32,5.6,16.78,16.78,0,0,0-2-.24A29.18,29.18,0,0,0,77.54,19ZM4.52,72.33l.94,2.07,5.09-1.71v3.39l1.63.38c-3.4,2.62-6.61,4.22-8.88,4.27A45.94,45.94,0,0,1,4.52,72.33Zm31.61-2-.28.12-.17.26a9.64,9.64,0,0,0-1.77,3.89l0,.33,4.41,7.33.26.42.48.06a3,3,0,0,1,2.61,2.58H35.87a11.58,11.58,0,0,0-1.46-5.42,80.86,80.86,0,0,1-4-8.09c3.49-.86,11.27-4.1,14-9.85.63.16,1.37.3,2.17.42A24.83,24.83,0,0,1,36.12,70.32Zm29.61,15H60.66c-.24-.72-.66-2-1.16-3.83-.56-2,.08-12.5.64-19l.09-1.06-1.06,0c-.11,0-11.31-.31-15-1.56l-.92-.32-.34.91c-2.39,6.44-12.67,9.67-13.72,9.67l-.7-.13-.36.61a26.48,26.48,0,0,1-2.83,2.78l-.43.38.12.57c0,.23,1.16,5.65,2.55,8l.15.25.26.13a4.86,4.86,0,0,1,2.45,2.68h-5.5L22.53,72l3.39-3.57.18-.26c.39-.81,3.77-8,2.58-12-.81-2.73,1.27-7.45,2.14-9l-1.75-1c-.14.26-3.52,6.48-2.31,10.57a5.2,5.2,0,0,1,.16,1.58,53.41,53.41,0,0,1-12.79,16.6l-1.58-.37V69.91l-6,2L5.36,69.36c6.55-20.23,26.07-25.4,27-25.63.28-.06,27.87-5.88,33.77-7.28l.5-.12.19-.48c2-5,6.38-9.15,7.52-10.17H75V19.14c1.87,2,4.25,4.94,4.55,6.7l2-.33a5.21,5.21,0,0,0-.22-.82c1.89.27,4.91,1,6.18,3.3s4,3,6.27,3.19L80.52,34.85,73.35,53.56l4.17-2.47c-1.73,3-3.25,5.86-4.4,8.16a3.63,3.63,0,0,1-1.9,1.35,10.49,10.49,0,0,0-3.83,2.3c-4,3.37-5.33,17.22-4.53,19.21l.19.47.49.13A2.82,2.82,0,0,1,65.73,85.3ZM21.83,69.8C23,68.41,24.07,67,25.08,65.45c-.27.67-.52,1.25-.72,1.68Zm52.6,13.59a2.84,2.84,0,0,1,1.68,1.91H70L65.88,70.57c.66-2.7,1.58-5.12,2.8-6.14a9.3,9.3,0,0,1,2.81-1.8L71,63.76l-.08.25c-.26,1.61-1.52,9.75-.77,12,.13.38.25.81.37,1.26C71.09,79.43,71.92,82.38,74.43,83.39Zm15.9-46.56c-3.36.81-7.19,5.41-10.56,10.61l-2.5,1.48L82,36.51,94.52,33a3.31,3.31,0,0,0,.81.93A8.8,8.8,0,0,1,90.33,36.83Z"></path><circle cx="83.55" cy="29.37" r="1.08"></circle></svg>