<svg xmlns="http://www.w3.org/2000/svg" data-name="Layer 1" viewBox="0 0 100 100" x="0px" y="0px"><title>icons_animals_4</title><path d="M3.85,47a6.64,6.64,0,0,0,3.7,1.33,41.05,41.05,0,0,0,1,10.12c.88,2.88.24,14.88,0,20-.06,1.06-.1,1.88-.12,2.34-.1,2.75-1.4,12-1.41,12L6.82,94h9.84V93a4.36,4.36,0,0,0-2.1-3.94c-.41-1.33-1.63-6.23.67-10.68.54-1,1.1-2.26,1.65-3.58,1.32,2.26,3.61,7.64,4,18.23l0,1h7.72l.3-.37a3.55,3.55,0,0,0,.7-2.6,3.68,3.68,0,0,0-1.48-2.35c-.58-2.93-2.19-10.15-2.26-10.47l0-.18-.1-.16a4.1,4.1,0,0,1,.11-3.35c.81-2.18,2.45-6.69,3.09-8.43,3.39.34,8,.59,14.06.59q3.58,0,7.89-.12c.15,3.72.64,17,0,21.23s-.32,5.29.12,5.8a1.15,1.15,0,0,0,.87.42h7.5l0-1c0-.75-.2-4.14-1.95-5.41.28-1.57,1.23-5.74,2.27-10.11,3.4,8.77,1.2,15.15,1.18,15.21L60.29,94h9.49l0-1c0-.16.08-3.78-2.17-5.54-.62-9,2.13-22.09,2.42-23.42l9.07-19,7.21-6.41c.87.07,1.77.11,2.65.11a20.51,20.51,0,0,0,5-.53c1.74-.46,2.86-1.23,3.33-2.29.21-.47.39-.84.54-1.15,1-2.09.81-2.52-.95-5.84-.34-.65-.76-1.43-1.24-2.37-3.46-6.72-5.66-8.31-5.86-8.44L72,4.83l8.61,11.4a4.94,4.94,0,0,0-2.11.7c-1.77-.65-3.85-1.16-5.17-.6A2.26,2.26,0,0,0,72,17.83a3.92,3.92,0,0,0,1.24,3.71l-9.65,8.22c-3,0-23.75-.18-34.37,0s-14,3.21-17.29,6.13l-.93.81c-1.51-.17-5.92-.45-8.18,1.72a4.52,4.52,0,0,0-1.3,3.88A6.6,6.6,0,0,0,3.85,47ZM23.94,73.83a6,6,0,0,0,0,5c.25,1.12,1.83,8.26,2.29,10.66l.08.41.34.23a2,2,0,0,1,1,1.23,1.35,1.35,0,0,1-.08.69H22.8c-.56-12.53-3.79-17.86-5-19.44,1.11-2.8,2.15-5.74,2.92-8a31.68,31.68,0,0,0,6.13,1.27C26.14,67.83,24.68,71.82,23.94,73.83ZM56,89.12c.56.15,1,1.49,1.2,2.89H52.46a17.62,17.62,0,0,1,.33-3.9c.71-4.45.22-17.79.06-21.61l3.76-.15A57.35,57.35,0,0,0,58.39,74c-.81,3.35-3.13,13-3.13,14.18v.77ZM12,38.51c.44-.37.87-.75,1.3-1.13,3.17-2.81,6.17-5.46,16-5.63,11.39-.2,34.46,0,34.69,0h.37l10.43-8.88a18.3,18.3,0,0,0,3,1.79l.86-1.81c-2.1-1-5-3.11-4.63-4.49a.27.27,0,0,1,.19-.21c1.13-.48,4.59.87,6.58,1.93l.94-1.76-.24-.12a4.76,4.76,0,0,1,.8.11l.9,1.19,1.6-1.21L82,14.77l6.67,5s2,1.5,5.25,7.73c.49,1,.91,1.74,1.25,2.39l.42.8A4.17,4.17,0,0,0,94.54,33a3.86,3.86,0,0,0,.66,2.55,4.37,4.37,0,0,1-1.68.77c-4.13,1.1-11.43,0-12.47-.76l-1.19,1.61a10.25,10.25,0,0,0,3.84,1.19l-6.19,5.49-9.3,19.52-.07.21c-.13.6-3.26,14.84-2.45,24.59l0,.51.45.26A4.24,4.24,0,0,1,67.75,92H63a26.68,26.68,0,0,0-1.59-15.36,56.17,56.17,0,0,1-3.58-18.06h-2a48.84,48.84,0,0,0,.45,5.76c-24.72,1.13-32.78-.85-35-1.64.36-1.08.59-1.78.62-1.9l-1.91-.61c0,.12-3.75,11.73-6.62,17.25-3.11,6-.76,12.39-.66,12.66l.17.42.41.16A2.13,2.13,0,0,1,14.51,92H9.12c.36-2.59,1.19-8.83,1.27-11.11,0-.46.06-1.26.12-2.31.46-8.64.81-17.86-.06-20.7C9.36,54.36,8.7,41.24,12,38.51ZM4.19,39.86c1.14-1.09,3.45-1.3,5.21-1.26a19.35,19.35,0,0,0-1.77,7.76,4.62,4.62,0,0,1-2.53-.9A4.69,4.69,0,0,1,3.5,42.09,2.53,2.53,0,0,1,4.19,39.86Z"></path><circle cx="86" cy="25" r="1.5"></circle></svg>