<svg xmlns="http://www.w3.org/2000/svg" data-name="Layer 1" viewBox="0 0 100 100" x="0px" y="0px"><title>icons_animals_7</title><path d="M75.14,77.56a1,1,0,0,0,.48-1.19l-11.7-35a69.55,69.55,0,0,0-4.84-12.54,6.86,6.86,0,0,0-5.5-3.66H53.3C52.23,21.27,47.6,5.55,42.13,2.93,36.31.15,27.56,3,24.67,6.39A8.37,8.37,0,0,0,19,8.11c-2.15,1.72-3.33,4.55-3.52,8.42a1,1,0,0,0,1.71.76c.73-.73,4.51-1.24,8.64-1.68a9.67,9.67,0,0,1,3.45,9.63A29.49,29.49,0,0,1,27,30.93c-3.11,6.55-7.37,15.51-1.8,28.52,3.55,8.29,9.16,13.66,16.93,16.17V86a10.71,10.71,0,0,0-6,3,1,1,0,1,0,1.35,1.48c6-5.49,11-.3,11.21-.06A1,1,0,0,0,50.18,89a10.9,10.9,0,0,0-6-3V76.19a39.3,39.3,0,0,0,9.52,1.09l1.09,0V89.68a10.7,10.7,0,0,0-6,3,1,1,0,1,0,1.35,1.48c6-5.49,11-.29,11.21-.06a1,1,0,0,0,1.47-1.36,10.91,10.91,0,0,0-6-3V77.18c1.32-.08,2.68-.21,4.07-.38.45,1,1.62,3.64,4.55,10.86C68.09,94.35,73.76,98.2,78,98.2A6,6,0,0,0,79.66,98c2.49-.72,3.63-3,3.07-6.24C81.6,85.4,77.51,80.16,75.14,77.56ZM68.35,74.8A22.57,22.57,0,0,1,63.15,62.5a28.3,28.3,0,0,0,6.07,1.07l4,12A44.38,44.38,0,0,1,68.35,74.8Zm-9.62-3.31a20.5,20.5,0,0,1-6-14.44,32,32,0,0,0,8.35,4.75A24.85,24.85,0,0,0,65.2,74,38.84,38.84,0,0,1,58.74,71.49Zm-4.92-3a24.32,24.32,0,0,1-6.22-6.94,35.23,35.23,0,0,1-4.78-15.56,45.45,45.45,0,0,0,8,9.48A22.38,22.38,0,0,0,53.82,68.44ZM57.3,29.79A69,69,0,0,1,62,41.94L62,42l6.53,19.51C52.41,59.92,44,44.21,42.76,41.83,43,35.88,44.62,31.34,45.81,30a9.65,9.65,0,0,1,6.7-2.85h0a7.38,7.38,0,0,1,.81,0A4.87,4.87,0,0,1,57.3,29.79ZM20.24,9.69a6.31,6.31,0,0,1,3.94-1.31,5.92,5.92,0,0,1,.6,0c2.82,1.65,5.38,3.76,5.57,4.56a3,3,0,0,1-1.22.29c-5.47.54-9.27.94-11.48,1.63A8,8,0,0,1,20.24,9.69Zm8.19,5.66.9-.09c1.76-.17,2.77-.79,3-1.82.44-2-3-4.57-5.65-6.23,2.68-2.41,9.81-4.76,14.6-2.47,4,1.92,8.28,14.51,10,20.49a11.69,11.69,0,0,0-6.93,3.43A12.72,12.72,0,0,0,42.17,33l-.91-3.3a1,1,0,0,0-1.64-.47l-4.41,4-.61-4.79A1,1,0,0,0,33,27.79l-3.58,2.68a24.27,24.27,0,0,0,1.81-4.79A11.32,11.32,0,0,0,28.43,15.34ZM27,58.66c-4.57-10.66-2.17-18.23.59-24.35l5.2-3.89.64,5a1,1,0,0,0,1.67.61l4.63-4.22L41.22,37a37.13,37.13,0,0,0-.47,4.66,1,1,0,0,0,0,.41,38.11,38.11,0,0,0,5.14,20.41c3.78,6.4,9.69,10.1,15.17,12.24C43.57,77.07,32.71,71.9,27,58.66Zm52.07,37.4c-3,.85-9.09-2.28-11.88-9.15-1.29-3.17-3.27-8-4.34-10.39.76-.12,1.52-.24,2.3-.38a46.2,46.2,0,0,0,7.1,1.37c1.22,1.17,7.14,7.18,8.46,14.59C81,93.61,81,95.52,79.11,96.06Z"></path><circle cx="36.03" cy="9.72" r="1.5"></circle></svg>