<svg xmlns="http://www.w3.org/2000/svg" data-name="Layer 1" viewBox="0 0 100 100" x="0px" y="0px"><title>icons_animals_8</title><path d="M88.39,20.39l3.12-1.93-3.67.08C70.21,18.92,51.12,37,46.39,41.79c-1.31-3-4.66-9.95-8.83-12.08a8.63,8.63,0,0,0-9.62,1.22L.57,27l24.79,9.73c.4,2.37,1.65,8.61,4.17,11.42,0,2.52.82,15.26,17.87,22.81-1.25,1.68-3.11,5-1,7.89L48,77.67c-1.5-2,.39-4.79,1.29-5.9l.21.09a7.67,7.67,0,0,1,2.1,1.28l-.68.84c-.23.25-2.22,2.53-1.71,4.79a3.78,3.78,0,0,0,2.5,2.64l.77-1.85c-1.14-.47-1.27-1-1.31-1.22-.24-1.06.84-2.57,1.28-3.05l.62-.76a50.45,50.45,0,0,1,3.19,4c3.24,4.31,6.88,9.15,12.78,9.15a11.78,11.78,0,0,0,2.07-.19L84.78,85l-2.63-1.35c-.14-.07-14.07-7.34-17.83-16.8a50.51,50.51,0,0,0-3.26-6.69c5-1.36,12.75-7.85,15.16-13,1.13-2.41,5.3-6.3,9.42-9.76l0,0h0c4.64-3.89,9.2-7.23,9.29-7.29l3.45-2.52-4.21.72c-.54.09-7.07,1.23-14.84,3.2A21.55,21.55,0,0,1,88.39,20.39ZM46.78,44.26A112.84,112.84,0,0,1,58.06,34.16a11.37,11.37,0,0,1-.45,5.27q-.54.32-1,.66a40.79,40.79,0,0,1-10.71,5.16ZM78.79,84l-1.85.33c-3.81-.61-9.62-7.78-11.55-10.53L63.74,75c.61.87,5.13,7.15,9.66,10l-2.4.43C64.42,83.63,61,73.07,60.94,73L59,73.57c.12.38,2.47,7.59,7.28,11.56-3.44-1.22-6-4.57-8.44-7.85a49.21,49.21,0,0,0-3.52-4.33L58,68.47l-1.55-1.26-3.56,4.38A9.57,9.57,0,0,0,50.24,70c-16-6.17-18.37-16.53-18.68-20.5l.17.05h2.4v-2H32c-2.12-.5-4-7.1-4.75-11.69l-.09-.57-9.9-3.89L28.14,33l.5.07.35-.36a6.67,6.67,0,0,1,7.66-1.19c4.6,2.35,8.42,12.34,8.46,12.44l.52,1.38a20.18,20.18,0,0,1-6.31,1l-.17,2c.31,0,7.71.59,18.51-6.54a33.28,33.28,0,0,1,4.27-2.31,13.23,13.23,0,0,1-2.08,5.85v0h0a10.33,10.33,0,0,1-7.17,4.4l-2.19.17L52,51.42A52.4,52.4,0,0,1,62.46,67.59C65.52,75.3,74.43,81.42,78.79,84ZM54.68,51.31a13.59,13.59,0,0,0,1.48-.55c3.33.73,8.35,2.58,9.45,4.86A16,16,0,0,1,60,58.37,54.91,54.91,0,0,0,54.68,51.31Zm12.55,3.13c-1.56-2.67-5.83-4.3-8.58-5.1a12.15,12.15,0,0,0,2.53-2.5c1.9,0,9.05.87,11,2.86A32.55,32.55,0,0,1,67.23,54.45Zm7.17-8.1a13.49,13.49,0,0,1-1,1.76c-2.71-2.35-9-3-11-3.18a14.21,14.21,0,0,0,.68-1.59,122.1,122.1,0,0,0,16.63-3.27C77.23,42.4,75.2,44.65,74.4,46.35Zm10-10.48h0c-3.1,2.52-14.9,4.56-20.73,5.36A20,20,0,0,0,64,38.52c8.54-3.54,20.14-6.16,26.28-7.41C88.64,32.41,86.53,34.07,84.4,35.87ZM60,38.12c.06-.43.1-.86.12-1.29,6.9-3.55,14.8-6.87,17.73-7.12a15.48,15.48,0,0,0-.79,2.37l.08,0A97.65,97.65,0,0,0,60,38.12ZM78.79,27.8c-4-.34-13.93,4.4-18.68,6.81-.06-.75-.14-1.4-.21-1.86,7-5.22,15.83-10.54,24.45-11.89A23.51,23.51,0,0,0,78.79,27.8Z"></path><circle cx="33.56" cy="35.65" r="1.5"></circle></svg>