<svg xmlns="http://www.w3.org/2000/svg" data-name="Layer 1" viewBox="0 0 100 100" x="0px" y="0px"><title>icons_animals_5</title><path d="M94.84,29.93c-3.43-2.34-8-4.9-13-3.89a12.34,12.34,0,0,0-5,2.3l-.11.08a23.11,23.11,0,0,0-6,7.42l0,0a25.11,25.11,0,0,0-2.43,8.29,1,1,0,0,0-.16,1.48c-.18,2-.22,4-.25,5.84-.1,5.62-.2,10.53-4,13.86A58,58,0,0,0,59,55.77C54.11,47.71,38.82,35.52,35.22,32.7a17.65,17.65,0,0,0,2-4.9,8.07,8.07,0,0,0,5.72-4.68c3.14-6.87-.51-10.69-.67-10.85h0a1,1,0,0,0-.23-.17l-.06,0-.08,0a1,1,0,0,0-.29-.06h-.05a1,1,0,0,0-.33.06l-.08,0-.12.05a51.9,51.9,0,0,1-8.55,3.82c-1.82-.89-9.25-3.93-19.22,0-1.19.52-4.85-2-7.54-4.59a1,1,0,0,0-.1-.06,1,1,0,0,0-.22-.13l-.16-.05a1,1,0,0,0-.26,0H4.88l-.06,0a1,1,0,0,0-.26.1l-.14.07,0,0A9.27,9.27,0,0,0,1.92,22.34C4,26.82,6.49,27.6,8,27.6H8c.4,3.41,2.1,7.37,7,10.5A61.2,61.2,0,0,0,16,53.77a42.9,42.9,0,0,0,2.58,7.33C17.66,65.6,19.9,74,20.77,77a6.67,6.67,0,0,0-5,7.49,1,1,0,0,0,1,.84h5.2a6,6,0,0,0,.06,2,1,1,0,0,0,1,.76h24.7a16.93,16.93,0,0,0,3.67.43,14,14,0,0,0,9.51-3.56c1.77-.4,10.86-3.15,15.35-18.61a64.38,64.38,0,0,0,2.16-16.54c.25-7.58.4-12.16,7-13.6,1-.17,1.45.71,2.25,3.42l.16.54h0c.77,2.55,1.92,5.66,5.42,5.66h.16c2.51-.07,4.42-1.69,5.23-4.45C99.59,37.7,98.51,32.43,94.84,29.93Zm1.06,4.25c-.47,1.18-2.26,4.8-6.48,4.71a15.33,15.33,0,0,0-1-2.68c1.46-1.48,1.6-4.76,1.53-6.87a30.35,30.35,0,0,1,3.76,2.23A6.79,6.79,0,0,1,95.9,34.18ZM69.37,59a36.48,36.48,0,0,0,.47-5.28c2,.61,5,1.93,6,4a50.57,50.57,0,0,1-.82,5A13.17,13.17,0,0,0,69.37,59Zm.74-12.93c1.92.29,5.43,1.15,6.24,3.63-.05,1.63-.11,3.34-.24,5.12a16,16,0,0,0-6.21-3.17v-.17C69.93,49.73,70,47.92,70.11,46.11Zm6.37.44a12.75,12.75,0,0,0-6.15-2.44,23.18,23.18,0,0,1,1.86-6.63c1.72.36,4.72,1.36,5.19,3.17A24.38,24.38,0,0,0,76.48,46.55ZM41.14,22.26a6.39,6.39,0,0,1-3.52,3.37,22,22,0,0,0,.15-3.69c0-.21.56-.64,1-1a8.74,8.74,0,0,0,3.33-4.39A9.77,9.77,0,0,1,41.14,22.26Zm-37.4-.75a7,7,0,0,1-.25-5.64,5.54,5.54,0,0,0,.21.78c.69,1.9,2.35,3.42,5,4.51a16.56,16.56,0,0,0-.7,4.44C7.05,25.57,5.34,25,3.74,21.51Zm6.18,5s0-.06,0-.09A13.25,13.25,0,0,1,10.82,21a1,1,0,0,0-.58-1.34c-2.53-.9-4.1-2.12-4.66-3.65a4,4,0,0,1-.14-2.19c2.08,1.85,6.16,5,8.58,4,10.32-4,17.81.1,17.88.14a1,1,0,0,0,.82.08,64.39,64.39,0,0,0,7.76-3.25,6.48,6.48,0,0,1-2.94,4.64c-.87.68-1.76,1.38-1.77,2.6.47,11.43-8.25,16-12,17.5a2.88,2.88,0,0,1-2.26-.08c-1.1-.51-2.59-1.31-4.44-2.4C11.59,33.9,10.08,29.79,9.91,26.51Zm7.77,56.78c.06-1.38.7-3.94,4.53-4.62A1,1,0,0,0,23,77.35a62.32,62.32,0,0,1-2.56-12.18c2.94,6.17,6.48,12.52,8.09,15.34-2.52.13-4.37.88-5.5,2.25a4.64,4.64,0,0,0-.36.54Zm24.78,2.78H33.63c.23-1.28,1-3.09,4.58-3.51A15.72,15.72,0,0,0,42.47,86.07Zm3.73-.48c-4.51-1.58-7.86-4.88-8.33-8.2A14.67,14.67,0,0,1,50.29,60.87a1,1,0,0,0-.28-2A16.67,16.67,0,0,0,35.89,77.67,8.92,8.92,0,0,0,37,80.74c-3.1.63-4.86,2.43-5.31,5.33H23.86a3.24,3.24,0,0,1,.69-2c.94-1.13,2.89-1.66,5.63-1.51h.05a1,1,0,0,0,.45-.11l0,0a1,1,0,0,0,.25-.19l.07-.08.07-.08a1,1,0,0,0,.07-.16l0-.06a1,1,0,0,0,0-.33s0-.05,0-.08a1,1,0,0,0-.08-.28s0,0,0,0-7.59-15.36-4-28.34a1,1,0,0,0-1.93-.54c-1.76,6.33-1.08,13,.19,18.44-3.2-6.14-6.61-13.3-7.46-17.29a58.87,58.87,0,0,1-1-14.1c1.47.85,2.72,1.51,3.68,2a4.93,4.93,0,0,0,2.07.46,4.84,4.84,0,0,0,1.75-.33,22.42,22.42,0,0,0,9.61-7c3.7,2.91,18.6,14.87,23.26,22.46a53.54,53.54,0,0,1,5.15,10.34,1,1,0,0,0,.06.17c1.92,5.72,1.93,11.46-2.85,16C56.29,86.5,51.24,87.36,46.19,85.59Zm17.42-3.94c2.73-4.39,2.51-9.42,1-14.28A12.64,12.64,0,0,0,66,66.11c1.38.92,4.5,3.38,5.23,7.12A21,21,0,0,1,63.62,81.65Zm8.91-11a14.87,14.87,0,0,0-5.24-6.07A12.9,12.9,0,0,0,68.91,61c1.52.57,4.43,2,5.43,4.48,0,.1,0,.2-.08.3A40.77,40.77,0,0,1,72.53,70.62Zm5.85-32.21a10.48,10.48,0,0,0-5.24-2.76c.14-.23.27-.46.42-.69a20.52,20.52,0,0,1,3.81-4.46c1.87,1.55,4,3.89,3.71,5.19A8,8,0,0,0,78.38,38.41Zm6.55-4.19a14.51,14.51,0,0,0-1.89.56c-.42-2.12-2.57-4.28-4-5.5A9.91,9.91,0,0,1,82.25,28a10.82,10.82,0,0,1,5.66.5c.19,2.53-.06,5.26-.74,6.17A2.93,2.93,0,0,0,84.93,34.23ZM96.6,40.79a3.73,3.73,0,0,1-3.37,3c-1.7,0-2.49-1-3.18-2.92a8.58,8.58,0,0,0,6.71-4.05A9.06,9.06,0,0,1,96.6,40.79Z"></path><path d="M23,36.59a1,1,0,0,0,1-1V30.13a1,1,0,0,0-2,0v5.47A1,1,0,0,0,23,36.59Z"></path></svg>