<svg xmlns="http://www.w3.org/2000/svg" data-name="Layer 1" viewBox="0 0 100 100" x="0px" y="0px"><title>icons_animals_5</title><path d="M21.37,48.61c1.16,1.6,3.11,2.41,5.8,2.41h.31c2.89-.06,4.94-1,6.08-2.69a6.45,6.45,0,0,0,1-3.73A14.57,14.57,0,0,0,39.67,34.4,13.63,13.63,0,0,0,39.46,31c1-.67,2.74-2.13,3.08-4.09a4.07,4.07,0,0,0-1-3.4A4.73,4.73,0,0,0,38,21.69a5.53,5.53,0,0,0-3.34,1.17A13.4,13.4,0,0,0,21,20.94a12.58,12.58,0,0,0-1.47.75,5.08,5.08,0,0,0-7,1.05,4.2,4.2,0,0,0-1,3.39,6.93,6.93,0,0,0,2.6,4,12.59,12.59,0,0,0-.09,1.47c0,9.05,4.55,12.28,6.29,13.19A6.6,6.6,0,0,0,21.37,48.61ZM40,24.84a2.09,2.09,0,0,1,.59,1.75,4.49,4.49,0,0,1-1.67,2.35,14.07,14.07,0,0,0-2.8-4.66,3.12,3.12,0,0,1,1.85-.6A2.79,2.79,0,0,1,40,24.84Zm-26.56,1A2.26,2.26,0,0,1,14,24a3,3,0,0,1,3.7-1,11,11,0,0,0-3.18,4.85A4,4,0,0,1,13.42,25.84Zm2.53,5.75a9.2,9.2,0,0,1,5.82-8.8,11.33,11.33,0,0,1,12.17,2.12,11.61,11.61,0,0,1,3.73,9.36A12.74,12.74,0,0,1,34.2,42.2,9.9,9.9,0,0,0,33.84,41a1,1,0,1,0-1.86.74s1.29,3.39-.08,5.45c-.76,1.14-2.26,1.75-4.46,1.8s-3.65-.48-4.45-1.58c-1.52-2.08-.3-5.67-.28-5.71a1,1,0,0,0-1.89-.66,11.22,11.22,0,0,0-.38,1.48C18.81,41.41,15.95,38.44,15.95,31.58Z"></path><path d="M22.76,36.81l4,5.2a1,1,0,0,0,1.58,0l4-5.2a1,1,0,0,0-.79-1.61H23.56a1,1,0,0,0-.79,1.61Zm6.83.39-2,2.57-2-2.57Z"></path><path d="M94.15,61.07A1,1,0,0,0,93.56,63a4.18,4.18,0,0,1,3,4.65c-.18,1.84-1.38,3.8-3.33,4a3.83,3.83,0,0,1-3.12-1.17c-2.26-2.2-3.35-7-2.93-12.91,1-14.12-5.87-18.21-7.37-18.92-3.94-4.91-10.89-4.89-11-4.9H52a19.83,19.83,0,0,0-.33-3c-1.18-6.26-5.3-11.91-11.59-15.9C34.15,11,25.75,10.12,18.15,12.41,11.24,14.49,6,18.84,3.42,24.65c-5.93,13.3,3.26,25.47,3.65,26a1,1,0,0,0,1.77-.8A7.91,7.91,0,0,1,9,46.07C10.53,53.14,15.76,57.25,18,59l.58.46a1,1,0,0,0,1.53-1.22,5.06,5.06,0,0,1-.5-1.78,14.46,14.46,0,0,0,1,1.33c-.23,2.11-.92,11.28,3.08,18.83a7.79,7.79,0,0,0-3.29,2.06,7.69,7.69,0,0,0-2.16,5.7,1,1,0,0,0,1,1h6.14a10.34,10.34,0,0,0-.26,2.54,1,1,0,0,0,1,1H41a1,1,0,0,0,1-1c0-5.65,1-20.64,6.09-22.6a21.65,21.65,0,0,1,3.71.46,56.15,56.15,0,0,0,7.21.86A35.34,35.34,0,0,0,61.78,78a6.65,6.65,0,0,0-6.16,6.3,1,1,0,0,0,1,1h6a8.38,8.38,0,0,0-.49,2.5,1,1,0,0,0,1,1h14.3a1,1,0,0,0,1-.85c.18-1.2,4.37-29.58,4-41.51A15.75,15.75,0,0,0,81.95,43c1.86,2.4,3.76,6.75,3.21,14.36C84.68,64,86,69.23,88.68,71.88a5.83,5.83,0,0,0,4.13,1.75l.59,0c2.7-.26,4.81-2.64,5.12-5.78A6.14,6.14,0,0,0,94.15,61.07ZM19.22,48.39h0a1,1,0,0,0-1,1c0,.18,0,.35,0,.52,0,.59-.15,1.28-.26,2a21,21,0,0,0-.37,4.2c-2.88-2.51-7.13-7.21-6.92-14.48,0-.06,0-.12,0-.17a1,1,0,0,0-1-1h0a1,1,0,0,0-1,1s0,.07,0,.11A6.8,6.8,0,0,1,8.06,43a15.51,15.51,0,0,0-1.19,3.52C4.6,42.31,1.42,34,5.24,25.46c2.35-5.27,7.14-9.22,13.49-11.14C25.79,12.19,33.56,13,39,16.46c5.82,3.69,9.62,8.87,10.7,14.58a20,20,0,0,1-2.84,14c-.47-2.78-1.39-6.12-1.53-6.64a1,1,0,0,0-2,.29c0,.14.15,12.62-5.62,18a30.63,30.63,0,0,0-1.26-6.57,1,1,0,0,0-1.94.43c.19,1.54.32,6.19-1.53,7.28a18.51,18.51,0,0,0-5.71,4.91,55.86,55.86,0,0,0-3.59-4.36l-1.35-1.55C20.47,54.61,20,53.38,20.17,50c0-.2,0-.39,0-.57A1,1,0,0,0,19.22,48.39Zm1,34.92A5.75,5.75,0,0,1,21.8,80a5.17,5.17,0,0,1,3.43-1.7,1,1,0,0,0,.85-1.53c-3.58-5.75-3.81-13.18-3.66-16.89,1.67,1.9,3.64,4.18,4,5.29a1,1,0,0,0,.95.68h0a1,1,0,0,0,.42-.12c.41,4,1.32,10.56,3.11,13.5a9.63,9.63,0,0,0-4.86,4Zm37.6,0a4.71,4.71,0,0,1,1.31-2.13,6,6,0,0,1,4.5-1.26A1,1,0,0,0,64.16,78c-1.24-.74-3.09-9-3.2-11.49a18.29,18.29,0,0,0,3.3-.41c.51,4.89,2,11.49,3.44,14.63a6.39,6.39,0,0,0-4,2.54Zm18.74,3.53H64.26a4.92,4.92,0,0,1,5.08-4.22,1,1,0,0,0,.55-1.83C69,79.66,66.58,70.56,66.12,65c0,0,0,0,0,0a10.89,10.89,0,0,1,.1-3.4,1,1,0,0,0-.5-1.17,1,1,0,0,0-1.23.25c-.29.21-2,.21-4.37-1.07-1.57-.84-6.68-4.1-6.32-10.49a1,1,0,1,0-2-.11c-.37,6.52,4.24,11.27,9,13.1a8.59,8.59,0,0,0,3.31.67c0,.42,0,.9,0,1.4a16.89,16.89,0,0,1-4,.46h0a48.66,48.66,0,0,1-7.91-.86,19.4,19.4,0,0,0-4.37-.47l-.21,0c-6.85,2.34-7.5,18.88-7.55,23.54H27.1c.36-3.89,3.24-5.12,5.19-6l.7-.31a1,1,0,0,0,.14-1.73C31.4,77.65,30,69,29.6,63A18.41,18.41,0,0,1,34,59.54a4.47,4.47,0,0,0,1.74-2c0,.38,0,.75,0,1.11a1,1,0,0,0,1.51.93c4.87-2.92,6.82-9.37,7.59-14.33a12.51,12.51,0,0,1,.28,2.71,1,1,0,0,0,1.8.67,24.65,24.65,0,0,0,5-12.87H68.8c.43,0,11.28,0,11.62,10.83C80.75,57.16,77.27,81.93,76.56,86.84Z"></path><circle cx="21.23" cy="31.17" r="1.5"></circle><circle cx="33.14" cy="31.17" r="1.5"></circle></svg>