<svg xmlns="http://www.w3.org/2000/svg" data-name="Layer 1" viewBox="0 0 100 100" x="0px" y="0px"><title>icons_animals_8</title><path d="M21.61,53.44l1.54.17-.49-1.48c-.2-.61-.4-1.33-.57-2.08.2.35.41.69.61,1A13.94,13.94,0,0,1,25,56.91c.72,5.87-1.8,12.12-2.3,13-2.11,3.86-2.4,7.41-.84,10.24,1.9,3.47,2.29,12.39,2.29,14.59v.54l.45.3a4.07,4.07,0,0,1,1.56,2.72l.08.91H37.34L30.8,92.58c-1.37-5.73-2.77-15.38-.89-17.87,6.9-6.44,9-12.27,9.66-15.63,2.36,3.17,7.11,8.38,13,8.83,5.75.44,6,1.31,6.46,2.76a10.48,10.48,0,0,0,.52,1.43c1.86,6.06,1.22,12.85.8,17.35-.34,3.69-.5,5.37.5,6.12a6.09,6.09,0,0,1,1.68,2.91l.19.75H74.55l-7.81-6c.18-2.7,1-14.94,1.64-19.16.35-2.34,1.12-3.08,3-4.89a54.33,54.33,0,0,0,6.75-7.81c6.15-8.5,2.3-35.09,1.33-41.08,2.44-.07,7.3-.48,8.77-2.58a2.59,2.59,0,0,0,.27-2.5c-1.39-3.71-8.74-6.28-11.18-7A10.51,10.51,0,0,1,78.4,3.25l.9-1.66-1.88.19a7.31,7.31,0,0,0-5.46,4,3.74,3.74,0,0,0-2.59.73c-2.68,2-3,7.36-3,8L65.7,37c-2.93-.3-11.55-1.25-21.42-2.9-11.85-2-18.67,2-20.69,3.44a5.27,5.27,0,0,0-5.18-.31c-2.64,1.28-4.35,4.55-4.35,8.35C14.06,51.15,19,53.16,21.61,53.44ZM19.28,39a3.35,3.35,0,0,1,3.72.54l.66.52.63-.56c.26-.23,6.54-5.64,19.67-3.46,12.19,2,22.51,3,22.62,3l1.06.1.76-24.69c.05-1.38.54-5.23,2.17-6.44a1.82,1.82,0,0,1,.38-.22,15.05,15.05,0,0,0-.68,2.2l2,.41c0-.05.94-4.33,3.55-6A13.06,13.06,0,0,0,75.32,9l.08.67.65.18c3.59,1,9.63,3.56,10.55,6a1.12,1.12,0,0,1,.06.21l-2.87-.95-.63,1.9,1.5.5a25.23,25.23,0,0,1-6.4.73H77l.21,1.19c.06.32,5.52,32-.79,40.72a52.53,52.53,0,0,1-6.52,7.56c-1.93,1.88-3.09,3-3.54,6-.72,4.81-1.66,19.25-1.7,19.86l0,.53,4,3.08H64.26a7.38,7.38,0,0,0-2.08-3.18,21.61,21.61,0,0,1,.19-4.42c.44-4.67,1.1-11.73-.9-18.19l-.05-.13A8.55,8.55,0,0,1,61,70.09c-.75-2.47-1.81-3.68-8.22-4.17-7.33-.56-13-10.14-13.08-10.24l-2.2-3.76.34,4.35c0,.08.5,7.89-9.33,17l-.1.1c-3.23,4,.14,18.3.53,19.92l.07.27,3.58,3.64H28a5.91,5.91,0,0,0-1.83-3c-.05-2.22-.4-11.17-2.53-15-1.21-2.21-.92-5.09.85-8.33A28.45,28.45,0,0,0,27,56.67,15.79,15.79,0,0,0,24.41,50c-1.21-2-2.09-3.44-1.52-5.67l.4-1.57-1.58.34a2.33,2.33,0,0,0-1.56,1.17c-.94,1.65-.38,4.77.13,6.77a5.64,5.64,0,0,1-4.22-5.52C16.06,42.54,17.33,40,19.28,39Z"></path><path d="M70.68,50.61l1.93-.51c-2.06-7.81-10.44-9.8-10.79-9.88l-.45,1.95C61.45,42.19,68.94,44,70.68,50.61Z"></path><path d="M38.2,50.06s-1.3-4.31,1.79-7l-1.31-1.51c-4.06,3.52-2.46,8.87-2.39,9.09Z"></path><circle cx="76.83" cy="12.83" r="1.5"></circle></svg>