<svg xmlns="http://www.w3.org/2000/svg" data-name="Layer 1" viewBox="0 0 100 100" x="0px" y="0px"><title>icons_animals_8</title><path d="M93.78,73.23c-2.44-.17-6.12-.43-7.62-1.37s-3.24-4.69-4.93-8.56C79.41,59.16,77.36,54.46,74.5,51,69.27,44.61,60,37.15,45.6,37.82c-11.29.53-19,.68-21.12.71L23.2,36.27A3.09,3.09,0,0,0,23,33.1a3.26,3.26,0,0,0-2.43-1c-.72-1-2.63-2.65-7.18-2.29-5.83.46-7.65,3-7.84,3.24L4.36,34.79l1.5-.14c.3.51.6,1.26.29,1.59-1.66,1.79-2.4,3.44-2.2,4.91A3.68,3.68,0,0,0,5.84,43.8l1.27.75c2.81,1.63,6.31,3.66,6.31,7.5a76,76,0,0,0,.75,10L8.88,73.36c-2,0-6.56.4-6.67,3.37V79.3H12.68L22,65.12V59l2.32,2.71L22.63,74l-2.68.13a5.53,5.53,0,0,0-5.19,3.9l-.32,1.25H26.88l5.95-19.77h5.47A22,22,0,0,0,44,70.22c.12.11.21.52,0,1.12a3.4,3.4,0,0,1-2.94,2.29c-3.86.31-5.65,4.09-5.73,4.25l-.65,1.42H46l5.46-7.12-.06-.42c-.05-.36-1.19-7.83-1.88-11.14a9.26,9.26,0,0,0,1.31-.47,18.71,18.71,0,0,0,2.84,7.46c2.51,4.16,8.9,5.27,12.68,5.56a7.19,7.19,0,0,1-2.1.45,5.58,5.58,0,0,0-5.11,4.5l-.21,1.18H69.8l.3-.33c1-1.05,5.71-6.44,5.11-9.32A2.22,2.22,0,0,0,73.87,68a109.61,109.61,0,0,1-11.31-6.25c1.65-3.38,1.47-8.33,1.15-11.33C67.85,54,73.77,59.78,76,65.87c3.07,8.28,6.49,11.81,12.28,11.81A22.62,22.62,0,0,0,94,76.82c2.81-.75,3.87-1.13,3.76-2.21S96.7,73.43,93.78,73.23Zm-15.88-8C74.08,54.85,61,45.75,60.47,45.37L59.34,47s.85.59,2.11,1.58c.28,1.72,1.35,9.28-1.06,13l-.56.85.87.54a119.33,119.33,0,0,0,12.37,6.89c.14.06.17.12.18.21.25,1.2-2,4.61-4.33,7.24H61.55a3.43,3.43,0,0,1,2.8-1.68c4-.29,5.61-2.72,5.68-2.83l1-1.59-1.87.06c-.11,0-10.82.27-13.81-4.68-2.4-4-2.62-6.57-2.61-7.49a22.07,22.07,0,0,0,5.11-5L56.2,53c0,.05-3.9,5.42-8,5.89L47,59l.3,1.12c.52,1.93,1.72,9.65,2,11.54L45,77.3H38.16a4.68,4.68,0,0,1,3.1-1.68A5.42,5.42,0,0,0,45.94,72a3,3,0,0,0-.6-3.26c-1.1-1-6.43-7.39-5.27-15l-2-.3a16.75,16.75,0,0,0-.1,4.14H32.68l-2.52-4.72-1.77.94L31,58.63,25.39,77.3h-8A3.66,3.66,0,0,1,20,76.15l4.34-.22,2-14.83L22,55.95h0l-3.3-3.84-1.52,1.3L20,56.69v7.84L11.6,77.3H4.21v-.54c0-.88,2.8-1.48,5.27-1.4l.66,0,6.09-13,0-.3a75.49,75.49,0,0,1-.78-10c0-5-4.22-7.44-7.3-9.23-.43-.25-.84-.49-1.22-.72a1.77,1.77,0,0,1-1-1.22c-.11-.82.49-2,1.69-3.28a2.82,2.82,0,0,0,.43-3c1.3.13,3,.58,3.49,2.05l1.9-.63a5.17,5.17,0,0,0-4.2-3.26,13.32,13.32,0,0,1,4.29-1c3.48-.28,4.85.78,5.32,1.35l.25,1.07c.77-.18,2-.21,2.34.16.13.16.14.67-.26,1.57a3,3,0,0,1-1.59,1.77,2.31,2.31,0,0,1-1.65-.1L17,39.38a4.37,4.37,0,0,0,1.93.45,3.93,3.93,0,0,0,1.3-.22A4.18,4.18,0,0,0,22,38.29l1.28,2.25h.59c.08,0,8.44-.1,21.78-.72C59.28,39.18,68,46.23,73,52.25c2.68,3.27,4.68,7.83,6.44,11.85,1.9,4.34,3.54,8.09,5.7,9.45,1.67,1.05,4.77,1.39,7.39,1.59C84.83,76.91,81.33,74.43,77.9,65.18Z"></path><circle cx="9.64" cy="37.35" r="1"></circle></svg>