<svg xmlns="http://www.w3.org/2000/svg" data-name="Layer 1" viewBox="0 0 100 100" x="0px" y="0px"><title>icons_animals_4</title><circle cx="81.28" cy="36.06" r="1.5"></circle><path d="M80.29,28.25c-1.05-2.47-4.51-4.14-4.94-4.34a1,1,0,0,0-1,.12l-2.7,2.12a11.31,11.31,0,0,1-1.48-1.32A1,1,0,0,0,69,24.59a6.12,6.12,0,0,0-3.29,3.57,7.79,7.79,0,0,0-.41,2.46,29.52,29.52,0,0,0-7.32,4.86c-1.87-.53-8.15-1.9-19.29-.41C29.43,36.3,23.22,46.07,21,50.22c-2,3.65-3.64,8-3.67,10.65a12.31,12.31,0,0,1-7.25-2.94,8.74,8.74,0,0,1-2.51-6.44c-.06-4.61,3.25-6,7.09-7.52,4-1.65,8.64-3.52,8.48-9.82S19.72,22.51,14.84,20.6c-4.2-1.64-8.77-.36-12.53,3.52a1,1,0,0,0,1.44,1.39c3.22-3.32,6.89-4.4,10.36-3,4.06,1.59,6.88,6.3,7,11.72.12,4.92-3.29,6.31-7.24,7.92s-8.41,3.43-8.33,9.4a10.67,10.67,0,0,0,3.13,7.86c3.38,3.26,8.35,3.53,9.55,3.55,4.34,2.09,4.66,7.92,4.66,8a1,1,0,0,0,1,1H36.07a1,1,0,0,0,1-1.08H43a1,1,0,0,0,1-.74,3,3,0,0,0-.63-2.64,4.24,4.24,0,0,0-2.59-1.3c7.51.45,16.67-.16,20.57-1.75a13.1,13.1,0,0,1-1.31,6,1,1,0,0,0,.86,1.5h11.3a1,1,0,0,0,1-1.07h7.2a1,1,0,0,0,1-1.16c-.52-3.11-4.51-3.63-6.53-3.69l.68-7.86.92-1.22c2.87-3.81,8.38-7,13.24-9.83A50.21,50.21,0,0,0,97,42.2l.14-.12c1.52-1.38,2.25-2.74,1.72-4.19C97.15,33.08,83.91,28.94,80.29,28.25ZM96.36,40.11a2.76,2.76,0,0,1-.27-2.85A3.73,3.73,0,0,1,97,38.56C97.17,39,96.9,39.52,96.36,40.11ZM41.85,68.77H36.28a4,4,0,0,0-.88-.9,6.56,6.56,0,0,0-3.5-1.08,17.9,17.9,0,0,0,1-1.77,29.72,29.72,0,0,0,3.41.65l.16,1.5a1,1,0,0,0,.37.67,1,1,0,0,0,.74.21c3-.34,4,.32,4.24.62ZM38.32,66v-.08L39,66ZM73,67.63a1,1,0,0,0,.78.3,9.41,9.41,0,0,1,4.72.85H72.38A5.9,5.9,0,0,0,69,66.83c.81-1.12,2.18-3,4.22-5.74l-.5,5.75A1,1,0,0,0,73,67.63ZM88.65,45.28c-5,2.92-10.72,6.22-13.83,10.35C68.64,63.81,66.42,67,66.4,67a1,1,0,0,0,.79,1.57s2.46.1,3.5,1.25H62.38a16.55,16.55,0,0,0,.82-7.37,1,1,0,0,0-.81-.89,1,1,0,0,0-1.07.53c-1.2,1.65-14.7,2.87-23.82,1.74a1,1,0,0,0-.37,0,25.89,25.89,0,0,1-4.54-1,1,1,0,0,0-1.25.61,18.08,18.08,0,0,1-2.16,3.8,1,1,0,0,0,1,1.58c.73-.12,2.88-.26,4.08.62a2.1,2.1,0,0,1,.39.37H24.79c-.28-2-1.37-6.54-5.48-8.65-.13-1.23.8-5.16,3.44-10,2.1-3.87,7.87-13,16.17-14.12,12.67-1.7,18.86.47,18.92.49a1,1,0,0,0,1-.2,32.19,32.19,0,0,1,6.57-4.62,15.58,15.58,0,0,0,1.16,3.78,1,1,0,1,0,1.8-.87s-1.85-3.9-.83-6.8a4,4,0,0,1,1.65-2.09c2.53,2.37,8.11,5.45,8.36,5.59a1,1,0,1,0,1-1.75c-1.07-.59-3.28-1.88-5.23-3.2L75.05,26c1.18.65,3.21,2,3.51,3.37a1,1,0,0,0,1,.78C81.1,30.15,89.93,33,94.45,36A6,6,0,0,0,94,39.91a3.77,3.77,0,0,0,.86,1.5A71.6,71.6,0,0,1,88.65,45.28Z"></path></svg>