<svg xmlns="http://www.w3.org/2000/svg" data-name="Layer 1" viewBox="0 0 100 100" x="0px" y="0px"><title>icons_animals_3</title><circle cx="50" cy="8" r="1.19"></circle><path d="M28.39,59.06c.13,7.44,3.18,16.84,5.4,23.69,1.1,3.39,2.33,7.2,2.36,8.49-2.61.35-3.32,3.5-3.32,5.41v1H48.33l0-1c-.13-3.13-2.17-4.1-3.53-4.75l-.35-.17a3.59,3.59,0,0,1-.12-1.51,21.13,21.13,0,0,0,4.4.47,17.66,17.66,0,0,0,4.16-.49c.07.33.12.66.16,1A4.37,4.37,0,0,0,50.77,93a5.55,5.55,0,0,0-.47,3.92l.2.74H65.11l.12-.87c.45-3.29-2.22-4.74-4-5.49-.05-5.57,1.84-8.74,3.51-11.55a25,25,0,0,0,1.72-3.23c1.17-.86,5.16-4.5,6.87-15.25a28.65,28.65,0,0,0-4.59-20.84C67.08,25.51,61.6,20.33,59,17.84c-2.11-2-1.83-2.29-.29-3.93a15.06,15.06,0,0,0,2.35-3c1-1.85,3-2.27,5.09-2.72C67.89,7.77,69.72,7.38,71,6l1.45-1.57-2.14-.11a56.63,56.63,0,0,0-10.57.28c-1-.89-3.7-1.82-10.94-1.05C39.6,4.55,39,12.9,39,15.3,29,21.61,28.1,42.93,28.39,59.06Zm43,1.9c-1,6-2.64,9.59-4,11.63a138.68,138.68,0,0,0,1.78-27.48A27.25,27.25,0,0,1,71.38,61ZM42.68,15.84l-.53-1.93a11.72,11.72,0,0,0-1.13.37c.16-2.66,1.31-8,8-8.72a31,31,0,0,1,7.25-.12,5.49,5.49,0,0,0-2.83,2A2.67,2.67,0,0,0,53.17,10L55,9.14a.74.74,0,0,1,.15-.7c.5-.7,2.49-2.15,10.36-2.21-2.26.48-4.78,1.09-6.21,3.65a13.23,13.23,0,0,1-2.06,2.64c-1.87,2-2.93,3.64.38,6.75,3.86,3.64,14.13,13.32,7.53,54.78A13.26,13.26,0,0,1,63,78.73c-1.79,3-4,6.73-3.78,13.29l0,.65.61.24c2.17.87,3.16,1.65,3.35,2.75H52.13A3,3,0,0,1,52.5,94a2.69,2.69,0,0,1,1.8-1.17l.8-.19,0-.82a22.33,22.33,0,0,0-1.84-6.92l-1.82.82a25.71,25.71,0,0,1,.94,2.52,18.09,18.09,0,0,1-7.82-.05c.09-.56.21-1.14.35-1.7L42.93,86c-.73,2.92-1.23,6.57.52,7.45l.45.22c1,.48,1.87.89,2.22,2H34.93c.16-1,.58-2.44,1.71-2.44a1.41,1.41,0,0,0,1.16-.58c.83-1.14.17-3.5-2.1-10.49-1.28-4-2.84-8.75-3.93-13.49l.6.6c.54-.54,13.27-13.57,13.61-47.51l-2,0c-.29,29.22-10.15,42.72-12.51,45.53A44.54,44.54,0,0,1,30.39,59C30.22,49.22,29.68,19.39,42.68,15.84Z"></path></svg>