<svg xmlns="http://www.w3.org/2000/svg" data-name="Layer 1" viewBox="0 0 100 100" x="0px" y="0px"><title>icons_animals_7</title><path d="M3.72,81.67c1.95,1.52,4.91,2.27,8.85,2.27,7.29,0,17.9-2.6,31.39-7.73,1.75-.66,3.41-1.33,5-2,1,1.65,3.94,5.08,10.45,5.94h-1V85.7l4.35,4.55H51.05v2h18v-2h-3.5L60.45,84.9V80.27c.66.05,1.34.09,2.07.09A32.1,32.1,0,0,0,67.18,80l.68,5.93,7.69,4.34h-3v2H89.51v-2H79.62l-9.89-5.58-.57-5c.79-.16,1.61-.34,2.46-.56,18.2-4.69,28.17-27.08,26.68-41,2.28-13.47-5.47-24.52-5.8-25l-.11-.13C89,9.51,85.35,7.88,81.7,8.09A13.58,13.58,0,0,0,73,12.4c-2.22-1-9-3.45-16.85,1.77L54.1,15.56l2.47.43c2,.35,4,.61,5.91.86,5,.65,9.26,1.21,10.32,3,1.46,2.48-.53,7.49-1.47,8.15l.13.18a12.73,12.73,0,0,0-9.33,6.19C55.83,44.21,2.33,75.58,1.79,75.9l-.43.25-.06.49A5.84,5.84,0,0,0,3.72,81.67Zm4.6-.13L32,66.49a24.36,24.36,0,0,0,5.07,2.39L24.2,79c-1.17.92-1.92,1.51-2.38,1.92C15.22,82.21,11,82.14,8.32,81.54ZM44.4,61.81a28.58,28.58,0,0,0,4.08-.31c8-1.15,23.27-5.39,30.71-12.25-1.92,3.85-5.42,8.18-11.67,12.7-24.09,13-35.7,2.79-38.5-.36,1.81-1.15,3.64-2.33,5.46-3.51C35.59,59.46,38.33,61.81,44.4,61.81ZM43.25,74.33a159.62,159.62,0,0,1-16.94,5.52L39.43,69.56A28.58,28.58,0,0,0,46,70.3a37.56,37.56,0,0,0,9.72-1.36C52.09,70.74,48,72.54,43.25,74.33Zm27.87,2.81c-13.74,3.54-18.83-1.59-20.29-3.73a96.09,96.09,0,0,0,17.72-9.74l0,0h0C84.9,51.92,83.69,41.15,83.15,36.3c0-.29-.06-.56-.09-.81-.29-3.1-3.45-6.06-7.49-7a12.49,12.49,0,0,0-1.89-.31,12.68,12.68,0,0,0,1.14-2.75c3.5-.08,19.29.16,21.3,11.44C98.38,49.58,88.67,72.62,71.12,77.14ZM62.74,14.86l-3-.41a14.31,14.31,0,0,1,13,0l.75.46.55-.69s3.17-3.92,7.79-4.18c3-.17,6.09,1.24,9.07,4.2a36.55,36.55,0,0,1,5.77,18.12c-4.58-8.59-17.35-9.09-21.45-9a7.28,7.28,0,0,0-.7-4.56C73,16.2,68.46,15.61,62.74,14.86Zm1.07,20.59c3.89-6.08,9.19-5.55,11.28-5,3.19.77,5.76,3,6,5.28,0,.26.06.54.09.84a24.19,24.19,0,0,1,0,6.38C78.78,51,60.54,57.73,48.2,59.52c-7.87,1.14-11-1.28-12-2.54C48.81,48.69,60.88,40,63.81,35.45ZM27.34,62.66a20.15,20.15,0,0,0,2.85,2.61L5.91,80.7A6.29,6.29,0,0,1,5,80.13a4.08,4.08,0,0,1-1.69-2.8C5.79,75.87,16,69.85,27.34,62.66Z"></path><circle cx="81.71" cy="15.75" r="1.5"></circle></svg>