<svg xmlns="http://www.w3.org/2000/svg" data-name="Layer 1" viewBox="0 0 100 100" x="0px" y="0px"><title>icons_animals_3</title><circle cx="88.03" cy="30.45" r="1.08"></circle><path d="M74.15,41.07a8.33,8.33,0,0,0,4-1.44l5,2.13a1,1,0,0,0,.34.08c2.57.14,11.1.46,13-1.33a7.75,7.75,0,0,0,2.33-3.7,1,1,0,0,0-.19-.83c-.1-.13-2.48-3.14-3.71-4.53a4.63,4.63,0,0,1-1.06-2.24,17.91,17.91,0,0,0-.55-1.77c-.66-1.76-3.71-4.47-5.07-5.62a6.33,6.33,0,0,0,.59-4,2.71,2.71,0,0,0-1.37-1.66c-1.45-.75-3.3.15-4.84,1.3a44.29,44.29,0,0,0-28,4.88c-1.33,0-8,.21-20.69-.58-9.27-.57-18.7,2.64-24.64,8.38a22.11,22.11,0,0,0-6.85,17C2.9,63.39,1.23,73,1.21,73a1,1,0,0,0,.16.74l2,2.86a1,1,0,0,0,.83.43H17.21a1,1,0,0,0,1-1c.12-3.77-2.08-5.49-3.54-6.62-.57-.44-1.15-.9-1.21-1.14.12-.79,3.09-3.1,6.36-4.94l.17-.12.29-.26,3.2,6.22c-.35,1.35-1.15,5.37,1,7.53a1,1,0,0,0,.71.29H39.64a1,1,0,0,0,1-.7A5.81,5.81,0,0,0,40,72c-1-1.81-3-3.1-5.83-3.81a8.75,8.75,0,0,1,.89-2.86A59.51,59.51,0,0,0,38,57.32a70.94,70.94,0,0,0,9.73-.95L45.58,73.26a1,1,0,0,0,.07.52l1.14,2.69a1,1,0,0,0,.92.61H62.07a1,1,0,0,0,1-.93c.23-3.45-2.27-6-4.25-7a50.91,50.91,0,0,0,1.51-9l.73-.63L66.8,69.54c-.28,1.23-.86,4.81,1,7.17a1,1,0,0,0,.78.38H82.85a1,1,0,0,0,1-1,8.43,8.43,0,0,0-6.89-8C75.17,64,72,47.2,72.44,45.41A37,37,0,0,0,74.15,41.07Zm22.34-4.28a.87.87,0,0,1,0-.22l.18.23-.11.23A.72.72,0,0,1,96.49,36.78ZM33.27,64.55c-.46,1-1.46,3.33-.88,4.65a1.63,1.63,0,0,0,1.07.92c2.42.57,4,1.54,4.83,2.89a3.81,3.81,0,0,1,.51,2.07H25.66c-1.06-1.52-.49-4.54-.16-5.64a1,1,0,0,0-.07-.75L21.8,61.62a31.77,31.77,0,0,0,4.46-5.3,46.14,46.14,0,0,0,9.71,1A63,63,0,0,1,33.27,64.55ZM56.57,70a1,1,0,0,0,.66.62A6.24,6.24,0,0,1,61,75.08H48.38l-.78-1.83,2.17-16.86a1,1,0,0,0,0-.35,45.63,45.63,0,0,1-1-6.88,1,1,0,0,0-2,0,33.26,33.26,0,0,0,.66,5.24c-2.94.49-12,1.75-20.05.12,2-3.69,1.74-6,1.73-6.21a1,1,0,1,0-2,.22c0,.05.49,5.49-8.31,13.18-3.58,2-7.71,4.86-7.25,7a4.45,4.45,0,0,0,1.94,2.36c1.23,1,2.49,1.94,2.73,4H4.68L3.25,73c.32-2,1.61-11.14,1.17-26a20.15,20.15,0,0,1,6.24-15.46c5.55-5.37,14.42-8.36,23.12-7.83,14.33.89,20.89.58,21.16.57a1,1,0,0,0,.48-.15,42.77,42.77,0,0,1,25.14-5c-.41.41-.73.75-.89.94a1,1,0,0,0,1.5,1.32c1.81-2,4.43-4,5.32-3.54a.7.7,0,0,1,.38.46,5.34,5.34,0,0,1-.77,3.17l-1.23,1.64a1,1,0,0,0,1.6,1.2l.65-.86C88.82,25,91,27.07,91.4,28.14a16,16,0,0,1,.49,1.58,6.59,6.59,0,0,0,1.49,3c.45.51,1.08,1.27,1.68,2a3.42,3.42,0,0,0-.56,2.3,2.88,2.88,0,0,0,.88,1.63c-.11.11-.2.22-.32.34-.83.79-6.48,1-11.32.79l-5.38-2.3a1,1,0,0,0-1.08.2,6.2,6.2,0,0,1-4,1.36,1,1,0,0,0-1,1c0,1-2.57,6.52-4.94,11.2l-8.66,7.54a1,1,0,0,0-.34.67c-.3,3.35-1,8.53-1.71,9.57A1,1,0,0,0,56.57,70Zm18.82-.52a1,1,0,0,0,.71.51,6.46,6.46,0,0,1,5.62,5.11H69.12c-1.23-2.06-.3-5.38-.29-5.41a1,1,0,0,0-.09-.77L62.6,58.12l6.24-5.43a1,1,0,0,0,.24-.3c.36-.71,1-1.9,1.63-3.28C71.57,55.8,74.3,67.42,75.38,69.45Z"></path></svg>