<svg xmlns="http://www.w3.org/2000/svg" data-name="Layer 1" viewBox="0 0 100 100" x="0px" y="0px"><title>icons_animals_2</title><circle cx="15.32" cy="23.65" r="1.54"></circle><path d="M52,57.63A1,1,0,0,0,52,57.3v0a1,1,0,0,0-.13-.23c-2.4-3.19-3.24-8.29-3.25-8.34a1,1,0,0,0-2,.32,26.43,26.43,0,0,0,2.54,7.52c-10.57-.91-14.46-7.09-14.64-7.38a1,1,0,0,0-1.72,1c.16.26,3.23,5.22,11,7.42-7.78.58-13.56-.78-17.2-4.07a12.7,12.7,0,0,1-4-9.65,1,1,0,0,0-2-.17A14.5,14.5,0,0,0,25.27,55c3.48,3.15,8.58,4.73,15.25,4.73a58.67,58.67,0,0,0,10.7-1.1l.16-.05.06,0a1,1,0,0,0,.28-.18l.05-.06a1,1,0,0,0,.16-.23L52,58v0a1,1,0,0,0,.06-.31s0,0,0,0S52,57.64,52,57.63Z"></path><path d="M77.67,9.85c-7,.11-12.43,2.38-16.15,6.75-6,7-5.71,17.24-5.41,20.83a20.71,20.71,0,0,0-4.61.09c-4.41.55-9.57,2.42-11.73,4.47-2.91-3.36-8.06-3.33-10.54-3.09.16-2.18-.23-6.76-4.14-14.37l-.1-.19a6.55,6.55,0,0,0,4.44-4.17,5.8,5.8,0,0,0-1.69-6.24,3.76,3.76,0,0,0-3.41-1.11,4.31,4.31,0,0,0-1.85,1v0a3.79,3.79,0,0,0-3.31-1.88,4.72,4.72,0,0,0-4,1.14,3.66,3.66,0,0,0-.4.47l-.16-.13c-1-.72-2.33-.78-4-.17A3,3,0,0,0,8.4,15.43c-.34,1.83,1.26,3.86,2.39,5l-.35.29L2.55,22.88a1,1,0,0,0-.22,1.84L8,27.85a4.82,4.82,0,0,0-.88,1.85,3.72,3.72,0,0,0,.83,3.17,3.75,3.75,0,0,0,2.93,1.54A27.91,27.91,0,0,0,7,54.69C8.91,64.53,15.4,68,18.93,68.53a5.57,5.57,0,0,0,2.83-.22,8.37,8.37,0,0,0,4.08,4.44,6.7,6.7,0,0,0,2.75.58,7.36,7.36,0,0,0,1.59-.18,8.28,8.28,0,0,0,6,4.23v4.72a18.36,18.36,0,0,0-7.46,2l-.26.12a1,1,0,0,0,.26,2,1.9,1.9,0,0,0,.86-.28,15.7,15.7,0,0,1,7.53-1.77h.08a10,10,0,0,1,6,2.47,1,1,0,0,0,1.3-1.52,12.07,12.07,0,0,0-6.34-2.85V77.42a9.07,9.07,0,0,0,5.68-2.15h.53a11,11,0,0,0,8.92-4.56c3-3.87,4.1-9.21,3.71-12a14.17,14.17,0,0,0,4.46-4.22c1-.34,4.6-1.39,7.41,0A6.66,6.66,0,0,1,72.23,59c2.31,8.43-.78,13.13-.81,13.18a1,1,0,0,0,1.52,1.29,28.13,28.13,0,0,0,7.23-14.63A40.38,40.38,0,0,1,81,67.08a1,1,0,0,0,.67,1,1,1,0,0,0,1.13-.34A33.05,33.05,0,0,0,88.3,53.62a20.24,20.24,0,0,1,.82,6.68,1,1,0,0,0,.6,1.09,1,1,0,0,0,.38.08,1,1,0,0,0,.81-.42c4-5.58,8.53-29.24,1.66-42.35C89.45,12.73,84.46,9.77,77.67,9.85ZM10.36,15.79c0-.11.08-.44.88-.73s1.62-.47,2.13-.1a1.78,1.78,0,0,1,.55,1.25c0,.22,0,.37,0,.39a1,1,0,0,0,1,.89,1,1,0,0,0,1-1,3.8,3.8,0,0,0,0-.43,2.53,2.53,0,0,1,.62-1.7A2.9,2.9,0,0,1,19,13.85c.64.07,1.46.26,1.72.77a2.3,2.3,0,0,1-.16,1.67c-.21.38-.33.66-.38.75A1,1,0,0,0,21.9,18a6.25,6.25,0,0,0,.42-.81c.52-.9,1.44-2.17,2.44-2.38.19,0,.77-.16,1.64.63a3.8,3.8,0,0,1,1.14,4.13,4.66,4.66,0,0,1-3.62,3c-1.68-2.48-3.67-3.95-5.94-4.32a8.58,8.58,0,0,0-5.49,1.09C11.4,18.25,10.2,16.66,10.36,15.79Zm45,41.57A1,1,0,0,0,55,58.52c.51,1.67-.16,7.05-3.21,11a9.07,9.07,0,0,1-6.35,3.73,9.9,9.9,0,0,0,.6-6,1,1,0,0,0-1.95.46s.74,3.31-1,5.54c-1.13,1.44-3.1,2.18-5.84,2.21-5.66,0-7.12-8.07-7.13-8.15a1,1,0,0,0-2,.34,17.62,17.62,0,0,0,1.13,3.64,4.84,4.84,0,0,1-2.56-.37c-1.52-.68-2.7-2.21-3.52-4.53a1,1,0,0,0-.87-.67,1,1,0,0,0-1,.54c-.08.15-.71.49-2.1.29-3-.43-8.56-3.5-10.27-12.24a26.33,26.33,0,0,1,5-20.79,1,1,0,0,0,.2-.35,11.1,11.1,0,0,0,1.93-1.83,1,1,0,0,0-1.56-1.25c-.52.65-2.19,2.33-3.6,2.33a1.72,1.72,0,0,1-1.43-.8,1.72,1.72,0,0,1-.43-1.5c.32-1.5,2.57-3,3.4-3.38A1,1,0,0,0,11.57,25a12.62,12.62,0,0,0-2.12,1.41l-4-2.2,5.73-1.55a1,1,0,0,0,.43-.24s2.86-2.69,6-2.16c2.16.36,4.06,2.13,5.65,5.23,5.18,10.09,3.79,14.24,3.78,14.26a1,1,0,0,0,1.12,1.35c.08,0,8-1.53,10.68,3.14a1,1,0,0,0,1,.5,1,1,0,0,0,.84-.74c.28-1.06,5.24-3.74,11-4.46,2.85-.35,7.86-.45,9.92,2.82a7.25,7.25,0,0,1-6.5,6.88,1,1,0,0,0,.08,2h.08a10.17,10.17,0,0,0,5.56-2.56l0,.1a1,1,0,0,0,0,.29,6.11,6.11,0,0,1,0,1.42,1,1,0,0,0-.06.42C60.52,52.76,59.18,55.13,55.4,57.36ZM75,67.38a23.37,23.37,0,0,0-.81-8.91,8.56,8.56,0,0,0-4.38-5.76,11.23,11.23,0,0,0-7.2-.58c.08-.27.15-.54.19-.79,1.22-1.15,7.53-6.64,12.61-2.19a12.88,12.88,0,0,1,3.1,4.37A25.24,25.24,0,0,1,75,67.38Zm7.91-3.65a33.57,33.57,0,0,0-2.49-10.86v0a15,15,0,0,0-3.66-5.2c-4.57-4-10.14-1.77-13.62.82,1-2.28,5-9.64,14-7.69,4.76,1,7.74,4.54,9.56,8.32A32,32,0,0,1,82.88,63.73Zm8-7.2a29.51,29.51,0,0,0-2.34-8l0-.07c-2-4.34-5.45-8.42-11-9.64-7.18-1.57-11.67,2.07-14.13,5.31a11.75,11.75,0,0,0,.31-2,1,1,0,0,0-.12-.55,8.14,8.14,0,0,0-5.41-3.81c-.26-2.7-.84-13.17,4.89-19.9,3.33-3.9,8.25-5.93,14.65-6H78a13.57,13.57,0,0,1,12.8,7.79C96.28,30.07,94,48.21,90.92,56.53Z"></path></svg>