<svg xmlns="http://www.w3.org/2000/svg" data-name="Layer 1" viewBox="0 0 100 100" x="0px" y="0px"><title>icons_animals_5</title><path d="M73.89,25.42a4.56,4.56,0,0,0-2.58-1.91,6.53,6.53,0,0,0-4.74.53,7.14,7.14,0,0,0-5.28-2,5.8,5.8,0,0,0-4.23,1.58,5.35,5.35,0,0,0-3.71-.88,5.89,5.89,0,0,0-3.56,1.67,4.75,4.75,0,0,0-3.62-.63A6.51,6.51,0,0,0,41.85,27c-1.64-1.43-2.4-5.07-2.65-7.15a8.87,8.87,0,0,0,3.06-1.16,5.76,5.76,0,0,0,2.63-4A3.64,3.64,0,0,0,43.8,11c-2.61-2.11-8.9-.19-11.57.78C31.71,9.82,30,6.51,24.57,6.51h-.31A12.63,12.63,0,0,0,17.5,8.67c-4.62-.82-9-2.3-9.29-3.14A1.61,1.61,0,0,0,7,4C5.91,3.73,4.58,4.59,3.78,6c-1.19,2.15-.71,4.64,1.28,6.65a10.31,10.31,0,0,0,4.37,2.9C8.18,16.7,6.84,17.86,5.33,19c-4.32,3.26-3.4,6.23-2.8,7.36,1.5,2.83,6,4.48,10.06,3.93a5.36,5.36,0,0,0-1.92,2,4.54,4.54,0,0,0,0,3.95A6.42,6.42,0,0,0,8,41.8a3.41,3.41,0,0,0,1.53,2.64,6.19,6.19,0,0,0,.9,6.39,4.5,4.5,0,0,0,2.46,1.63,3.94,3.94,0,0,0,.45,3,6.07,6.07,0,0,0,3.9,2.35c1.31,1.38,9,9.8,10.13,19.16a109,109,0,0,1,.8,17.89L28.08,96H39.47a5.41,5.41,0,0,0,5.41-5.54l-.36-14.1c.52-.86,2.19-3.69,3.82-7.06A83.37,83.37,0,0,0,61.23,70.8a15.1,15.1,0,0,0,2.27-.15A11,11,0,0,0,65,72.36c4.71,4.26,6.24,11.06,4.81,15-4.25,1.85-4.32,7.35-4.32,7.59v1h9.29l.28-.24c3.29-2.8,3.17-9.44,3-17.12l0-2.32c0-.63,0-1.23,0-1.81,2.26.72,7.24,2.76,8.15,6.95,1.23,5.69-2.28,13-2.32,13.12L83.21,96h9.57l.29-.48c.17-.27,4.06-6.74,1.15-13.72-.29-.69-.6-1.42-.94-2.19-2.43-5.64-6-13.9-4.37-19.19a6,6,0,0,0,2.87,2.1,2.59,2.59,0,0,0,.59.07c.8,0,2-.38,2.7-2.32,2.19-5.88-.9-14.82-4.22-18.66a4.32,4.32,0,0,0,.83-4.92,4.22,4.22,0,0,0-4.17-1.95,5,5,0,0,0-1.2-4.21,4.24,4.24,0,0,0-3.66-1.11A6.48,6.48,0,0,0,79,25.67,7.24,7.24,0,0,0,73.89,25.42ZM6.48,11.27C5,9.75,5,8.39,5.3,7.52a3,3,0,0,1,1-1.43c.69,2.07,5.22,3.42,9,4.2-1.19,1-2.39,2.08-3.66,3.27h0C11.05,14,9.26,14.08,6.48,11.27ZM29.34,76.77c-.9-7.45-5.5-14.16-8.44-17.77,4.06,2.33,13.68,8.6,13.59,15.6-.1,7.79,0,16.46,0,19.36H30.2A115.71,115.71,0,0,0,29.34,76.77Zm62.11,3.6c.33.76.64,1.49.93,2.17,2.1,5,0,9.91-.75,11.42h-5.3c1-2.58,2.89-8.16,1.85-13-1.19-5.51-7.53-7.86-9.9-8.56A18.93,18.93,0,0,1,81.57,64l5.54-4.49C85,65.44,88.7,74,91.45,80.37ZM81,30.78l.23,1.06,1-.31a2.58,2.58,0,0,1,2.66.39c.72.73.87,2.13.38,3.75l-.53,1.76,1.77-.51c1.58-.46,2.93-.18,3.42.71s0,2.15-1.13,3.2l-.82.73.81.75c2.83,2.61,6.55,11.48,4.41,17.23-.42,1.13-.81,1-1,1-2.3-.53-6.17-8.13-5.84-11.44l-2-.2c-.21,2.11.82,5.43,2.35,8.27l-6.53,5.29-.13.13c-.17.2-4.19,5.05-4.07,13.71l0,2.33C76.19,85.28,76.3,91.56,74,94H67.57c.22-1.45.95-4,3.32-4.88l.41-.15.17-.4c2.23-5.15-.08-13.07-5.15-17.65C61.52,66.53,60.75,55.34,62.71,53l-1.54-1.28C59,54.32,59.31,63,62.33,68.77,59,69,52.68,68,49.22,67.39c1.56-3.47,2.89-7.23,2.84-9.91l-2,0c.11,5.74-7.32,17.88-7.39,18l-.16.25.37,14.69A3.41,3.41,0,0,1,39.47,94h-3c0-2.88-.09-11.55,0-19.33.13-10.09-15.8-18-16.48-18.38l-.2-.1h-.23c-.91,0-3.72-.36-4.56-1.71a2.73,2.73,0,0,1,.18-2.61l1.11-2.38-2.41,1c-.67.28-1.46-.3-1.94-.9a4.15,4.15,0,0,1-.22-5l.84-1.19L11.18,43A1.44,1.44,0,0,1,10,41.62a4.45,4.45,0,0,1,2.48-4l1-.46-.55-1a3.05,3.05,0,0,1-.43-2.94c.86-1.74,4.12-2.53,5.35-2.69.38,0,.75,0,1.13,0a15.93,15.93,0,0,0,8.46-2.24,5.92,5.92,0,0,0,3-4.11l-2-.24a4.09,4.09,0,0,1-2.08,2.67,15,15,0,0,1-11.79,1.28l-.31-.1-.31.11c-3.77,1.29-8.44-.31-9.61-2.52-1-1.85.67-3.65,2.24-4.83A80.75,80.75,0,0,0,13,15c4-3.72,6.89-6.41,11.31-6.51,5.77-.12,6.14,4.13,6.16,4.61l0,1.44L31.84,14c3.47-1.41,9.09-2.82,10.7-1.51.16.13.63.51.39,1.84A3.79,3.79,0,0,1,41.18,17c-3.48,2.24-10.52.51-10.59.49l-.49,1.94a26.19,26.19,0,0,0,7.11.67c.27,2.4,1.28,8,4.77,9.27l1,.34.32-1a4.52,4.52,0,0,1,3.32-3,2.66,2.66,0,0,1,2.63.79l1,1.15.67-1.36a3.52,3.52,0,0,1,2.71-1.6,3.2,3.2,0,0,1,2.91,1.07l1.13,1.4.59-1.7c.36-1.05,1.9-1.44,3.1-1.46h.09c1.83,0,3.54.75,3.9,1.72L65.79,27l1.07-.8a4.62,4.62,0,0,1,3.89-.79,2.55,2.55,0,0,1,1.75,1.65l.42,1.16,1-.65a5,5,0,0,1,4.29-.08A4.54,4.54,0,0,1,81,30.78Z"></path><circle cx="20.76" cy="16.29" r="1.5"></circle></svg>