<svg xmlns="http://www.w3.org/2000/svg" data-name="Layer 1" viewBox="0 0 100 100" x="0px" y="0px"><title>icons_animals_3</title><path d="M93.77,30.5c-5.7-1.26-14.42,3.25-20.95,10.76a13.31,13.31,0,0,0-5.12-.15A26.49,26.49,0,0,0,55.93,26.79a1,1,0,0,0-.43-.24C51.32,24.26,45.82,22.73,38.6,23a29.44,29.44,0,0,0-15.08,4.42l-.09,0a1,1,0,0,0-.3.23C14.27,33.6,11.76,43.32,11.19,46.27h-.93c-.68.07-6.7.81-8.86,3.89a4.19,4.19,0,0,0-.64,3.49,5.48,5.48,0,0,0,5,4l.95.07a7.38,7.38,0,0,0,6.2,4.3V68.5a1,1,0,0,0,1,1H25.69a1,1,0,0,0,1-1,4.23,4.23,0,0,0,0-.43h6.25a1,1,0,0,0,1-1.18,10.27,10.27,0,0,0-2.46-4.39c8.72.39,17.84.54,23.92-.08V67a1,1,0,0,0,1,1h7.86a2.05,2.05,0,0,1,0,.39,1,1,0,0,0,1,1.09H76.91a1,1,0,0,0,1-1.05,8.43,8.43,0,0,0-6-7.32l-.15-.43c-.62-1.77-.83-2.36,4.27-4.37,6.4-2.52,25.88-10.17,23.1-20.48A6.92,6.92,0,0,0,93.77,30.5ZM38.67,25A31,31,0,0,1,54,27.94c-.82,1.47-3.81,4.95-13.74,4.95-9.74,0-13.64-2.9-14.95-4.28A28.3,28.3,0,0,1,38.67,25ZM23.61,29.7a11,11,0,0,0,3.12,2.43,24,24,0,0,0-6,9.67,1,1,0,0,0,1.91.6,22.25,22.25,0,0,1,6-9.35,31.51,31.51,0,0,0,11.59,1.84,28,28,0,0,0,9.47-1.39,53.22,53.22,0,0,1,5.74,6.93,1,1,0,0,0,1.69-1.07,51.3,51.3,0,0,0-5.48-6.71,9.48,9.48,0,0,0,4.07-3.72,23.58,23.58,0,0,1,10,12.57,28,28,0,0,0-3.68,1.16c-8.2,3.19-39.26,3.58-48.85,3.62C13.8,43.26,16.06,35,23.61,29.7ZM2.7,53.18h0A2.16,2.16,0,0,1,3,51.31c1.38-2,5.75-2.85,7.39-3,2.42,0,42.43.1,52.36-3.76,4.41-1.71,8-1.87,10.05-1.16l.05,0a3,3,0,0,1,1.47,1c.62.86.1,1.86-.47,2.57-14.84,12-59.26,9.39-68,8.75A3.46,3.46,0,0,1,2.7,53.18ZM31.48,66H25.9a5.6,5.6,0,0,0-2.13-2,13,13,0,0,1,.06-2l.52,0,4.16.23A15.76,15.76,0,0,1,31.48,66Zm25.85,0V62.13a16.43,16.43,0,0,0,3.43-.82l.06,0A33.68,33.68,0,0,1,63.56,66Zm18-11.56c-5.9,2.32-6.53,3.75-5.43,6.89.1.27.2.56.29.88a1,1,0,0,0,.72.68,6.4,6.4,0,0,1,4.86,4.58H66.12a7.53,7.53,0,0,0-.19-.78,1,1,0,0,0,0-.12C64.8,63,61,58.11,60.54,57.45A1,1,0,1,0,59,58.68l.68.9c-2.7.88-10.81,2-35.16.5L23.29,60a1.24,1.24,0,0,0-.91.4,4.55,4.55,0,0,0-.63,2.88,8.88,8.88,0,0,0-1.18-.15,1,1,0,0,0-.11,2c2.42.13,3.45,1.27,3.89,2.2a1,1,0,0,0,.07.14H14.87V61.11a1,1,0,0,0-1-1,5.88,5.88,0,0,1-4.85-2.22c4.19.25,10,.5,16.43.5,17.35,0,39.68-1.77,49.75-10l.14-.14c1.43-1.73,1.66-3.64.61-5.09a4.33,4.33,0,0,0-1.21-1.1c5.93-6.59,13.75-10.68,18.57-9.62a5,5,0,0,1,3.84,3.91C98.71,42.05,91.35,48.14,75.28,54.46Z"></path><circle cx="88.11" cy="38.18" r="1.19"></circle></svg>