<svg xmlns="http://www.w3.org/2000/svg" data-name="Layer 1" viewBox="0 0 100 100" x="0px" y="0px"><title>icons_animals_7</title><path d="M4.64,96.76s0,0,0,0A2.41,2.41,0,0,0,6,98.93a4.09,4.09,0,0,0,1.92.39c5,0,14.79-5.22,17.31-9.13,2.77-4.31,5.59-9.1,6.56-10.78a16.87,16.87,0,0,0,2,.22V92.12a8.18,8.18,0,0,0-4.69,2.71,1,1,0,0,0,1.55,1.27,5.94,5.94,0,0,1,3.87-2,5.27,5.27,0,0,1,4,2.08,1,1,0,1,0,1.48-1.34,7.87,7.87,0,0,0-4.16-2.62V79.64a33.23,33.23,0,0,0,8.3-1.56V88.76a8.28,8.28,0,0,0-4.44,2.67,1,1,0,0,0,1.55,1.27,6,6,0,0,1,3.87-2,5.19,5.19,0,0,1,4,2.08,1,1,0,0,0,1.48-1.34,7.7,7.7,0,0,0-4.41-2.66V77.42c1.55-.55,3.21-1.22,5-2,16.46-7.46,14.45-30.56,13.75-35.9a15.17,15.17,0,0,0,5.82-1.6,4.71,4.71,0,0,0,2.56-3c.81-4-1.88-10.78-4.06-13.92-1.28-1.85-1.36-3.21-1.12-3.53.09-.12.5-.16,1.15.07a9.29,9.29,0,0,1,2.26,1.36c1.93,1.41,4.58,3.33,8.31.25,1.78-1,9.06,2.47,10.1,3.58A1,1,0,0,0,91.56,22c0-4.3-1.06-7.48-3.27-9.45a8.27,8.27,0,0,0-5.17-2A8.06,8.06,0,0,0,79.77,5.4C76.16,3,63.09-.76,58,5.61S62,22.54,62.39,23c1,1.29,2.25,3.52,1.84,4.35-.19.38-.92.58-2.05.54h0c-2.26-3.71-7.76-9-14.51-5.78a8.65,8.65,0,0,0-1.26-.95,7.89,7.89,0,0,0-7.44-.78c-5.1,2.14-9.41,10-12.46,22.85A264.89,264.89,0,0,1,14.88,78.29a1,1,0,0,0,.24,1.12c-2.31,2.68-7.21,8.76-10,15.06a5.5,5.5,0,0,0-.53,2.25ZM89.48,20a24.1,24.1,0,0,0-7.84-3,8.57,8.57,0,0,0,1.62-4.5A6.22,6.22,0,0,1,87,14C88.39,15.32,89.24,17.33,89.48,20ZM66,28.22c1.15-2.32-1.52-5.82-2.09-6.52C61.62,19,56.33,11,59.61,6.85c3.93-5,15.43-2.23,19,.21a6.06,6.06,0,0,1,2.63,4.67,7,7,0,0,1-2.71,5.75c-2.6,2.21-4,1.18-6-.25a10.88,10.88,0,0,0-2.78-1.63c-2-.7-3,.08-3.4.61-1,1.26-.54,3.57,1.06,5.88,2,2.85,4.41,9.09,3.74,12.38a3,3,0,0,1-1.57,1.68c-2.66,1.48-8.23,2.07-12.41.62a6,6,0,0,1-1.92-4.24,6.5,6.5,0,0,1,1.59-3.85,13.85,13.85,0,0,0,4.59,1.15h0l.56,0C64.12,29.93,65.44,29.38,66,28.22Zm-6.65-.79a9.65,9.65,0,0,1-2.16-.85A1,1,0,0,0,56,26.7a8.82,8.82,0,0,0-2.69,5.76A8,8,0,0,0,56,38.34a1,1,0,0,0,.36.23,19,19,0,0,0,6.38,1h.07c.59,4.62,2.63,27.09-12.57,34C39.43,78.47,33.4,78,30.46,77c8.93-3.81,14.38-11.25,18.86-19.12,3.74-6.57,4.85-15.85,3.7-23.57,0-.07,0-.14,0-.22a1,1,0,0,0-.12-.45,23.13,23.13,0,0,0-3.86-10C53.84,21.76,57.52,25.13,59.36,27.43Zm-31,16.24c2.85-12,6.86-19.61,11.29-21.47a5.48,5.48,0,0,1,2.14-.44,6.74,6.74,0,0,1,3.49,1.09c3,1.78,4.89,6.15,5.71,11.4-.07,19-22.78,30-29.74,32.86A233.22,233.22,0,0,0,28.39,43.67Zm-8,26c3.44-1.27,24.81-9.73,31-26.28a33.11,33.11,0,0,1-3.77,13.58c-6,10.62-13.91,20.44-30.29,20.75C17.93,76.1,19,73.26,20.38,69.63Zm-2.81,10A36.12,36.12,0,0,0,27.79,78a9.71,9.71,0,0,0,1.93.88c-1.16,2-3.71,6.29-6.22,10.19-1.11,1.73-3.72,3.61-6.56,5.15L22,87a1,1,0,0,0-1.64-1.15l-3.61,5.16c-1.83,2.62-2.83,4-3.33,4.88-2.89,1.18-5.5,1.78-6.51,1.24A.42.42,0,0,1,6.74,97c1.44-1.61,8.16-8.36,12.4-12.59A1,1,0,0,0,17.73,83c-4.41,4.39-7.33,7.32-9.27,9.3A73.44,73.44,0,0,1,17.57,79.66Z"></path><circle cx="75.33" cy="10.82" r="1.5"></circle></svg>