<?xml version="1.0" encoding="UTF-8" standalone="no"?>
<svg
   xmlns:dc="http://purl.org/dc/elements/1.1/"
   xmlns:cc="http://creativecommons.org/ns#"
   xmlns:rdf="http://www.w3.org/1999/02/22-rdf-syntax-ns#"
   xmlns:svg="http://www.w3.org/2000/svg"
   xmlns="http://www.w3.org/2000/svg"
   id="svg8"
   version="1.1"
   y="0px"
   x="0px"
   viewBox="0 0 100 100"
   data-name="Layer 1">
  <metadata
     id="metadata14">
    <rdf:RDF>
      <cc:Work
         rdf:about="">
        <dc:format>image/svg+xml</dc:format>
        <dc:type
           rdf:resource="http://purl.org/dc/dcmitype/StillImage" />
        <dc:title>icons_animals_2</dc:title>
      </cc:Work>
    </rdf:RDF>
  </metadata>
  <defs
     id="defs12" />
  <title
     id="title2">icons_animals_2</title>
  <path
     id="path4"
     d="m 91.797311,46.34 a 7.2,7.2 0 0 1 -3.77,1 10.68,10.68 0 0 1 -3.27,-0.56 7.76,7.76 0 0 1 -4.83,-3.78 6.94,6.94 0 0 1 -0.78,0.37 c 0.59,2 1.25,6.54 -0.87,14.34 a 8.8,8.8 0 0 1 -6.47,6.17 c -0.71,0.59 -4.65,4 -4.65,7.61 a 41.75,41.75 0 0 1 -0.36,4.79 c -0.24,2.06 -0.49,4.2 0.11,4.87 a 1.37,1.37 0 0 1 0.27,1.5 c -0.2,0.44 -0.73,1.57 -7.72,1.57 h -0.39 c 0,0.37 0,0.61 0,0.62 a 1,1 0 0 1 -1,1 h -7 a 1,1 0 0 1 -1,-0.84 c 0,-0.72 -1,-15.83 -0.72,-21.94 a 19.2,19.2 0 0 1 -13,0.6 11.59,11.59 0 0 1 -0.61,1.31 l 2.21,1.58 a 1.0003125,1.0003125 0 1 1 -1.16,1.63 l -2.13,-1.53 a 9.14,9.14 0 0 1 -3.77,2.91 l 1,2.13 a 1.0001625,1.0001625 0 1 1 -1.82,0.83 l -1.1,-2.52 c -0.23,0 -0.46,0.06 -0.7,0.07 h -0.11 c -1.08,1.36 -5.35,7.29 -2.31,13.14 a 1,1 0 0 1 -0.58,1.41 15.88,15.88 0 0 1 -4.45,0.51 c -0.53,0 -1,0 -1.41,0 a 1,1 0 0 1 -0.24,0.48 1,1 0 0 1 -0.71,0.3 h -6.79 a 1,1 0 0 1 -0.82,-0.43 C 7.2073106,80.3 9.8473106,68.7 10.427311,66.48 9.3173106,63.95 3.0273106,48.43 8.2473106,34.64 a 12.78,12.78 0 0 0 -4,11.43 1,1 0 0 1 -0.84,1.14 h -0.15 a 1,1 0 0 1 -1,-0.85 c -1.43000003,-9.55 6.33,-14.71 7.8700004,-15.63 0.18,-0.32 0.36,-0.63 0.55,-0.95 5.46,-8.78 19.9,-6.78 32.64,-5.05 10.36,1.44 20.15,2.8 22.81,-1.8 0.14,-0.24 0.28,-0.48 0.43,-0.71 v 0 c -3,-3.31 -3.72,-7 -1.37,-13.43 a 1,1 0 0 1 1.94,0.3 9.45,9.45 0 0 0 4.67,8 v 0 c 4.36,-2.66 9.75,-3 13.74,-0.8 a 10.16,10.16 0 0 1 2.37,1.71 c 1.42,-0.36 5.37,-1.54 5.25,-5 a 1.0097524,1.0097524 0 0 1 2,-0.28 c 1.14,4.75 0.57,10.48 -4.34,12.91 0.42,9.91 4.72,13.23 4.75,13.26 a 1,1 0 0 1 0.4,1 c -0.03,0.17 -0.83,4.44 -4.17,6.45 z m -26.83,35.48 c -0.66,-1.36 -0.43,-3.35 -0.16,-5.76 a 40.1,40.1 0 0 0 0.35,-4.56 c 0,-2.78 1.71,-5.34 3.23,-7.06 a 12.15,12.15 0 0 1 -6.13,-1.17 c -1.21,2.54 -1.06,3.61 -0.92,4.66 a 6.82,6.82 0 0 1 -0.7,4.46 c -1.23,2.61 -1.57,7.04 -1.57,9.84 a 33.18,33.18 0 0 0 5.9,-0.41 z m -31.34,-17.14 c 0,0 0,0 0,-0.06 v 0 a 10.4,10.4 0 0 0 0.85,-1.62 26.88,26.88 0 0 1 -8.71,-4.95 19.77,19.77 0 0 1 -3.06,9.57 15.55,15.55 0 0 0 5.46,0.44 6.77,6.77 0 0 0 5.46,-3.38 z m -10.08,18.32 c -2.1,-5.36 0.44,-10.38 2.12,-12.88 a 11.44,11.44 0 0 1 -4.18,-0.78 c -0.27,0.33 -0.53,0.62 -0.77,0.88 a 12.5,12.5 0 0 1 -2.37,2 c 0.71,2.44 1,7.51 1.07,10.91 a 22.8,22.8 0 0 0 4.13,-0.13 z m -10.13,-53.58 c 0.91,2.39 2.65,5.45 4,5.45 v 0 c 2.76,-0.11 3.37,2.22 3.85,4.1 a 14.09,14.09 0 0 0 0.86,2.61 0.84,0.84 0 0 0 0.61,0.43 c 2.35,0.65 8.17,-1.8 10.55,-3.35 2,-1.31 4.69,-0.25 7.52,0.87 2,0.79 4.06,1.61 5.68,1.47 1,-0.09 1.23,-0.34 1.23,-0.34 0.08,-0.24 0,-1.38 -4.95,-5.93 -3.75,-3.47 -3.56,-6.71 -3,-8.47 -10.41,-1.39 -21.31,-2.31 -26.35,3.16 z m 80.2,-12.31 a 9.83,9.83 0 0 1 -4.35,2.56 10.08,10.08 0 0 1 1.37,3.77 c 2.31,-1.53 2.94,-4.12 2.98,-6.33 z m -4.84,7.89 a 7.92,7.92 0 0 0 -4.15,-7 11.76,11.76 0 0 0 -10.6,0.15 11.42,11.42 0 0 0 1.71,0.52 1.0169685,1.0169685 0 1 1 -0.37,2 c -0.08,0 -6.89,-1.36 -9.35,-7.37 -1,5.21 1.38,7.63 5.88,10.87 a 1,1 0 1 1 -1.17,1.62 c -1,-0.72 -1.88,-1.41 -2.68,-2.11 l -0.19,0.31 c -3.33,5.7 -13.79,4.25 -24.79,2.72 l -1.27,-0.18 c -0.43,1.07 -0.92,3.67 2.39,6.73 4.61,4.27 6,6.37 5.48,8 -0.5,1.47 -2.34,1.63 -2.94,1.69 -2.09,0.18 -4.38,-0.72 -6.6,-1.6 -2.22,-0.88 -4.54,-1.81 -5.69,-1.06 -1.69,1.1 -7.05,3.78 -10.72,3.78 a 5.46,5.46 0 0 1 -1.46,-0.18 2.81,2.81 0 0 1 -1.88,-1.49 15.87,15.87 0 0 1 -1,-3 c -0.54,-2.11 -0.82,-2.65 -1.83,-2.6 -2.59,0.2 -4.48,-3.19 -5.48,-5.47 -8.7000004,14.67 0.23,34.44 0.32,34.67 a 1,1 0 0 1 0.06,0.68 c -0.92,3.43 -2.6700004,13 -0.23,17.25 h 5.21 c -0.13,-5.12 -0.58,-10.75 -1.15,-11.57 a 1,1 0 0 1 0.66,-1.62 10.36,10.36 0 0 0 3.37,-3.08 0.92,0.92 0 0 1 0.28,-0.42 v 0 a 18.24,18.24 0 0 0 3.15,-11.88 1,1 0 0 1 1.93,-0.42 c 0.57,1.49 4.55,4.64 9.73,6.38 3.21,1.08 9.36,2.4 14.57,-0.83 a 1,1 0 0 1 1.51,1 c -0.41,2.62 0.15,15.29 0.59,22.41 h 5 c 0,-2.47 0.08,-8.69 1.79,-12.35 a 4.89,4.89 0 0 0 0.53,-3.34 c -0.2,-1.44 -0.42,-3.08 1.73,-7 a 1,1 0 0 1 0.9,-0.49 1.05,1.05 0 0 1 0.89,0.57 c 0.28,0.53 3,1.52 6.35,1.14 a 12.29,12.29 0 0 0 1.81,-0.43 v 0 a 6.94,6.94 0 0 0 5.29,-4.84 c 2.06,-7.62 1.32,-11.79 0.84,-13.37 -0.19,0 -0.37,0 -0.56,0 h -0.06 c -2.6,0 -5.25,-1.44 -7.89,-4.23 a 1,1 0 0 1 1.45,-1.37 c 2.23,2.36 4.39,3.57 6.41,3.6 a 4.83,4.83 0 0 0 0.6,0 1,1 0 0 1 0.14,-0.12 1,1 0 0 1 0.79,-0.08 4.64,4.64 0 0 0 1.6,-0.87 1,1 0 0 1 1.69,0.5 5.42,5.42 0 0 0 4,3.62 6.41,6.41 0 0 0 5.41,-0.26 7.9,7.9 0 0 0 3.12,-4.58 c -1.39,-1.25 -4.88,-5.51 -5.12,-15 z" />
  <circle
     id="circle6"
     r="1.54"
     cy="28.120001"
     cx="80.277313" />
</svg>
