<?xml version="1.0" encoding="UTF-8" standalone="no"?> <svg xmlns:svg="http://www.w3.org/2000/svg" xmlns="http://www.w3.org/2000/svg" version="1.1" viewBox="0 0 100 100" x="0px" y="0px">
<path d="M99.4,19.27a4.51,4.51,0,0,0-1.68-3.48,7.87,7.87,0,0,0-3-1.42A16.49,16.49,0,0,0,81.47,3.18C71,1.7,62,10.63,59.31,20.19c-2.16,2.25-18.94,8.08-32,10.58-11.61,2.23-23.61,6-24.59,17-.82,9.15,2,15.09,2.67,16.36V97h23V92.64L45.92,93V71.83a24.87,24.87,0,0,0,5.88.4c0,12.43,0,23.53,0,23.76v1H75.45v-4H91.79V46.89a6.84,6.84,0,0,0,2.35-.66c4.43-2.29,5.25-9.63,3.76-15.38-.86-3.34-1.61-5.66-2-6.87C98.8,22.8,99.44,20.83,99.4,19.27ZM43.92,90.92l-15.47-.29V64.85A60.73,60.73,0,0,0,43.92,71.4Zm45.87,0H75.45v-22c2-1.47,10.37-8.11,14.34-16.26ZM96,31.36c1.28,5,.59,11.37-2.75,13.1-2.33,1.21-7.38.15-9.64-2-1.5-1.44-1-2.6-.79-3,.44-.95.87-1.68,1.21-2.27,1.79-3.08,1.29-3.87-3-7.95-1-1-1.48-1.79-1.3-2.32.38-1.1,3.21-1.89,5.08-2.09a31.66,31.66,0,0,0,9.16-.24l.07,0C94.37,25.72,95.12,28,96,31.36Zm-2.5-8.72a30.38,30.38,0,0,1-8.6.2h-.22c-1,.1-5.95.71-6.88,3.45-.46,1.36.15,2.85,1.82,4.42,3.8,3.58,3.8,3.58,2.69,5.48-.36.62-.81,1.39-1.29,2.43a4.39,4.39,0,0,0,1.22,5.27,12.68,12.68,0,0,0,7.44,3c-1.54,8.4-10.51,16.44-14.19,19.43V36.67a7.61,7.61,0,0,0-5.25-7.79l-.72,1.87c4.42,1.7,4,5.57,4,5.73V95H53.77c0-7.1.07-49.58,0-56.29-.07-6.53,4.8-8.44,5-8.52l-.35-.94-.34-.94c-.06,0-6.41,2.44-6.32,10.42,0,3.67,0,18.07,0,31.51-10.32.68-23.67-7.92-23.81-8l-1.55-1V95h-19V63.6l-.14-.23c0-.06-3.38-6-2.54-15.43.87-9.68,12.1-13.12,23-15.21C38.83,30.6,58.57,24.49,61,21.27l.12-.15.05-.19c2.39-8.81,10.53-17.11,20-15.78a14.12,14.12,0,0,1,11.28,8.77,32.72,32.72,0,0,0-7.87.17l.31,2c2.35-.37,9-.86,11.53,1.25a2.55,2.55,0,0,1,1,2C97.41,19.93,97.46,21.77,93.47,22.63Z"></path><path d="M70.7,14.07a3.94,3.94,0,0,0-3,2.23,4.6,4.6,0,0,0-.41,4.08c1.07,2.65,4.64,3.78,4.79,3.83l.68.21,4.79-6.48L77,17.33C76.64,17,73.65,13.72,70.7,14.07Zm1.29,8a5.46,5.46,0,0,1-2.88-2.42,2.67,2.67,0,0,1,.31-2.36,2,2,0,0,1,1.5-1.21h.21c1.27,0,2.85,1.2,3.78,2.05Z"></path><ellipse cx="89.98" cy="34.65" rx="0.81" ry="1.75" /><ellipse cx="93.96" cy="34.65" rx="0.81" ry="1.75" />
</svg> 