<?xml version="1.0" encoding="UTF-8" standalone="no"?>
<svg
   xmlns:dc="http://purl.org/dc/elements/1.1/"
   xmlns:cc="http://creativecommons.org/ns#"
   xmlns:rdf="http://www.w3.org/1999/02/22-rdf-syntax-ns#"
   xmlns:svg="http://www.w3.org/2000/svg"
   xmlns="http://www.w3.org/2000/svg"
   id="svg10"
   y="0px"
   x="0px"
   viewBox="0 0 100 100"
   version="1.1">
  <metadata
     id="metadata16">
    <rdf:RDF>
      <cc:Work
         rdf:about="">
        <dc:format>image/svg+xml</dc:format>
        <dc:type
           rdf:resource="http://purl.org/dc/dcmitype/StillImage" />
        <dc:title></dc:title>
      </cc:Work>
    </rdf:RDF>
  </metadata>
  <defs
     id="defs14" />
  <g
     transform="matrix(-1,0,0,1,101.97354,0)"
     id="g4497">
    <path
       d="m 99.4,19.27 a 4.51,4.51 0 0 0 -1.68,-3.48 7.87,7.87 0 0 0 -3,-1.42 A 16.49,16.49 0 0 0 81.47,3.18 C 71,1.7 62,10.63 59.31,20.19 c -2.16,2.25 -18.94,8.08 -32,10.58 -11.61,2.23 -23.61,6 -24.59,17 -0.82,9.15 2,15.09 2.67,16.36 V 97 h 23 V 92.64 L 45.92,93 V 71.83 a 24.87,24.87 0 0 0 5.88,0.4 c 0,12.43 0,23.53 0,23.76 v 1 h 23.65 v -4 h 16.34 v -46.1 a 6.84,6.84 0 0 0 2.35,-0.66 c 4.43,-2.29 5.25,-9.63 3.76,-15.38 -0.86,-3.34 -1.61,-5.66 -2,-6.87 2.9,-1.18 3.54,-3.15 3.5,-4.71 z M 43.92,90.92 28.45,90.63 V 64.85 a 60.73,60.73 0 0 0 15.47,6.55 z m 45.87,0 H 75.45 v -22 c 2,-1.47 10.37,-8.11 14.34,-16.26 z M 96,31.36 c 1.28,5 0.59,11.37 -2.75,13.1 -2.33,1.21 -7.38,0.15 -9.64,-2 -1.5,-1.44 -1,-2.6 -0.79,-3 0.44,-0.95 0.87,-1.68 1.21,-2.27 1.79,-3.08 1.29,-3.87 -3,-7.95 -1,-1 -1.48,-1.79 -1.3,-2.32 0.38,-1.1 3.21,-1.89 5.08,-2.09 a 31.66,31.66 0 0 0 9.16,-0.24 h 0.07 c 0.33,1.13 1.08,3.41 1.96,6.77 z m -2.5,-8.72 a 30.38,30.38 0 0 1 -8.6,0.2 h -0.22 c -1,0.1 -5.95,0.71 -6.88,3.45 -0.46,1.36 0.15,2.85 1.82,4.42 3.8,3.58 3.8,3.58 2.69,5.48 -0.36,0.62 -0.81,1.39 -1.29,2.43 a 4.39,4.39 0 0 0 1.22,5.27 12.68,12.68 0 0 0 7.44,3 C 88.14,55.29 79.17,63.33 75.49,66.32 V 36.67 a 7.61,7.61 0 0 0 -5.25,-7.79 l -0.72,1.87 c 4.42,1.7 4,5.57 4,5.73 V 95 H 53.77 c 0,-7.1 0.07,-49.58 0,-56.29 -0.07,-6.53 4.8,-8.44 5,-8.52 l -0.35,-0.94 -0.34,-0.94 c -0.06,0 -6.41,2.44 -6.32,10.42 0,3.67 0,18.07 0,31.51 -10.32,0.68 -23.67,-7.92 -23.81,-8 l -1.55,-1 V 95 H 7.4 V 63.6 L 7.26,63.37 c 0,-0.06 -3.38,-6 -2.54,-15.43 0.87,-9.68 12.1,-13.12 23,-15.21 C 38.83,30.6 58.57,24.49 61,21.27 l 0.12,-0.15 0.05,-0.19 C 63.56,12.12 71.7,3.82 81.17,5.15 a 14.12,14.12 0 0 1 11.28,8.77 32.72,32.72 0 0 0 -7.87,0.17 l 0.31,2 c 2.35,-0.37 9,-0.86 11.53,1.25 a 2.55,2.55 0 0 1 1,2 c -0.01,0.59 0.04,2.43 -3.95,3.29 z"
       id="path2" />
    <path
       d="m 70.7,14.07 a 3.94,3.94 0 0 0 -3,2.23 4.6,4.6 0 0 0 -0.41,4.08 c 1.07,2.65 4.64,3.78 4.79,3.83 l 0.68,0.21 4.79,-6.48 L 77,17.33 C 76.64,17 73.65,13.72 70.7,14.07 Z m 1.29,8 a 5.46,5.46 0 0 1 -2.88,-2.42 2.67,2.67 0 0 1 0.31,-2.36 2,2 0 0 1 1.5,-1.21 h 0.21 c 1.27,0 2.85,1.2 3.78,2.05 z"
       id="path4" />
    <ellipse
       cx="89.980003"
       cy="34.650002"
       rx="0.81"
       ry="1.75"
       id="ellipse6" />
    <ellipse
       cx="93.959999"
       cy="34.650002"
       rx="0.81"
       ry="1.75"
       id="ellipse8" />
  </g>
</svg>
